0
SECTION
2
HEADER
9
$INSUNITS
70
4
9
$ACADVER
1
AC1014
9
$HANDSEED
5
FFFF
0
ENDSEC
0
SECTION
2
TABLES
0
TABLE
2
VPORT
5
8
100
AcDbSymbolTable
0
ENDTAB
0
TABLE
2
LTYPE
5
5
100
AcDbSymbolTable
0
LTYPE
5
14
100
AcDbSymbolTableRecord
100
AcDbLinetypeTableRecord
2
BYBLOCK
70
0
0
LTYPE
5
15
100
AcDbSymbolTableRecord
100
AcDbLinetypeTableRecord
2
BYLAYER
70
0
0
LTYPE
5
16
100
AcDbSymbolTableRecord
100
AcDbLinetypeTableRecord
2
DASHED
70
0
3
Dashed __ __ __ __ __ __ __ __ __ __ __ __ __ _
72
65
73
2
40
0.75
49
0.5
74
0
49
-0.25
74
0
0
ENDTAB
0
TABLE
2
LAYER
5
2
100
AcDbSymbolTable
70
2
0
LAYER
5
50
100
AcDbSymbolTableRecord
100
AcDbLayerTableRecord
2
0
70
0
62
7
6
CONTINUOUS
0
ENDTAB
0
TABLE
2
STYLE
5
3
100
AcDbSymbolTable
70
1
0
STYLE
5
11
100
AcDbSymbolTableRecord
100
AcDbTextStyleTableRecord
2
STANDARD
70
0
0
ENDTAB
0
TABLE
2
VIEW
5
6
100
AcDbSymbolTable
70
0
0
ENDTAB
0
TABLE
2
UCS
5
7
100
AcDbSymbolTable
70
0
0
ENDTAB
0
TABLE
2
APPID
5
9
100
AcDbSymbolTable
70
2
0
APPID
5
12
100
AcDbSymbolTableRecord
100
AcDbRegAppTableRecord
2
ACAD
70
0
0
ENDTAB
0
TABLE
2
DIMSTYLE
5
A
100
AcDbSymbolTable
70
1
0
ENDTAB
0
TABLE
2
BLOCK_RECORD
5
1
100
AcDbSymbolTable
70
1
0
BLOCK_RECORD
5
1F
100
AcDbSymbolTableRecord
100
AcDbBlockTableRecord
2
*MODEL_SPACE
0
BLOCK_RECORD
5
1B
100
AcDbSymbolTableRecord
100
AcDbBlockTableRecord
2
*PAPER_SPACE
0
ENDTAB
0
ENDSEC
0
SECTION
2
BLOCKS
0
BLOCK
5
20
100
AcDbEntity
100
AcDbBlockBegin
2
*MODEL_SPACE
0
ENDBLK
5
21
100
AcDbEntity
100
AcDbBlockEnd
0
BLOCK
5
1C
100
AcDbEntity
100
AcDbBlockBegin
2
*PAPER_SPACE
0
ENDBLK
5
1D
100
AcDbEntity
100
AcDbBlockEnd
0
ENDSEC
0
SECTION
2
ENTITIES
0
POINT
5
100
100
AcDbEntity
8
0
100
AcDbPoint
10
-130
20
80
30
0
0
POINT
5
101
100
AcDbEntity
8
0
100
AcDbPoint
10
80
20
80
30
0
0
POINT
5
102
100
AcDbEntity
8
0
100
AcDbPoint
10
-130
20
-50
30
0
0
LWPOLYLINE
5
103
100
AcDbEntity
8
0
100
AcDbPolyline
90
29
70
1
43
0.0
10
-125
20
80
10
75
20
80
42
-0.41421356237309503
10
80
20
75
10
80
20
61
42
-0.41421356237309503
10
79
20
60
10
60
20
60
42
0.41421356237309503
10
55
20
55
10
55
20
20
10
55.000000000000007
20
-30
42
0.41421356237309553
10
60
20
-35
10
79
20
-35.000000000000007
42
-0.41421356237310025
10
80
20
-36
10
80
20
-45
42
-0.41421356237309503
10
75
20
-50
10
-125
20
-49.999999999999993
42
-0.41421356237309453
10
-130
20
-45
10
-130
20
-26.425000000000001
42
-0.41421356237309503
10
-129
20
-25.425000000000001
10
-102.53434954626931
20
-25.425000000000001
42
0.17545237876417191
10
-98.053058748617943
20
-23.802548957181621
10
-72.518709202348646
20
-2.5239243352905341
42
0.2225848818878049
10
-70
20
2.8536246218910932
10
-70
20
17.746375378108898
42
0.22258488188780462
10
-72.518709202348646
20
23.123924335290525
10
-98.053058748617943
20
44.402548957181608
42
0.17545237876417263
10
-102.53434954626931
20
46.024999999999991
10
-129
20
46.024999999999991
42
-0.41421356237309503
10
-130
20
47.024999999999991
10
-130
20
75
42
-0.41421356237309453
0
CIRCLE
5
104
100
AcDbEntity
8
0
100
AcDbCircle
10
72.699999999999989
20
74
30
0
40
1.4999999999999947
210
0
220
0
230
1
0
CIRCLE
5
105
100
AcDbEntity
8
0
100
AcDbCircle
10
72.699999999999989
20
-43.399999999999991
30
0
40
1.4999999999999947
210
0
220
0
230
1
0
CIRCLE
5
106
100
AcDbEntity
8
0
100
AcDbCircle
10
-122.69999999999999
20
-43.399999999999999
30
0
40
1.5000000000000036
210
0
220
0
230
1
0
CIRCLE
5
107
100
AcDbEntity
8
0
100
AcDbCircle
10
-117.89999866560102
20
70.799999788030988
30
0
40
1.4999986656010122
210
0
220
0
230
1
0
LWPOLYLINE
5
108
100
AcDbEntity
8
0
100
AcDbPolyline
90
2
70
1
43
0.0
10
-117.89954151291093
20
69.300001192092893
10
-117.90045581829111
20
69.300001192092893
0
LINE
5
109
100
AcDbEntity
8
0
100
AcDbLine
10
-70
20
10.299999999999995
30
0
11
-70
21
17.746375378108898
31
0
0
LINE
5
110
100
AcDbEntity
8
0
100
AcDbLine
10
-63.000000864267349
20
50.00000074505806
30
0
11
-63.000000864267349
21
50.00000074505806
31
0
0
CIRCLE
5
111
100
AcDbEntity
8
0
100
AcDbCircle
10
-39.000000506639481
20
-6.0000000894069672
30
0
40
1.3500000000000001
210
0
220
0
230
1
0
CIRCLE
5
112
100
AcDbEntity
8
0
100
AcDbCircle
10
-61.000000834465027
20
-6.0000000894069672
30
0
40
1.3499999999999979
210
0
220
0
230
1
0
CIRCLE
5
113
100
AcDbEntity
8
0
100
AcDbCircle
10
-39.000000506639481
20
46.000000685453415
30
0
40
1.3499999999999979
210
0
220
0
230
1
0
CIRCLE
5
114
100
AcDbEntity
8
0
100
AcDbCircle
10
-63.000000864267349
20
48.000000715255737
30
0
40
1.3499999999999979
210
0
220
0
230
1
0
LINE
5
115
100
AcDbEntity
8
0
100
AcDbLine
10
64.000000953674316
20
-35.000000521540642
30
0
11
60
21
-35
31
0
0
LINE
5
116
100
AcDbEntity
8
0
100
AcDbLine
10
65
20
60
30
0
11
60
21
60
31
0
0
CIRCLE
5
117
100
AcDbEntity
8
0
100
AcDbCircle
10
48
20
-25.00000037252903
30
0
40
3.5000007674098033
210
0
220
0
230
1
0
CIRCLE
5
118
100
AcDbEntity
8
0
100
AcDbCircle
10
48.000000715255737
20
53.000000789761543
30
0
40
3.5000000521540642
210
0
220
0
230
1
0
CIRCLE
5
119
100
AcDbEntity
8
0
100
AcDbCircle
10
-32.999999336898334
20
62.000000923871994
30
0
40
3.4999999999999991
210
0
220
0
230
1
0
CIRCLE
5
120
100
AcDbEntity
8
0
100
AcDbCircle
10
-32.999999336898334
20
-32
30
0
40
3.5000000000000009
210
0
220
0
230
1
0
LINE
5
121
100
AcDbEntity
8
0
100
AcDbLine
10
-82.000005292105641
20
50.999991645654987
30
0
11
-82.000003226055043
21
69.000001117587104
31
0
0
LINE
5
122
100
AcDbEntity
8
0
100
AcDbLine
10
-88.000001311302185
20
51.000000819563866
30
0
11
-88.000001311302185
21
69.00000111758709
31
0
0
LINE
5
123
100
AcDbEntity
8
0
100
AcDbLine
10
-90.000001341104507
20
69.00000111758709
30
0
11
-90.000001341104507
21
51.000000819563866
31
0
0
LINE
5
124
100
AcDbEntity
8
0
100
AcDbLine
10
-80.000001192092896
20
69.00000111758709
30
0
11
-80.000001192092896
21
50.999998770654202
31
0
0
ARC
5
125
100
AcDbEntity
8
0
100
AcDbCircle
10
-89.000001341104507
20
69.00000111758709
30
0
40
0.99999999999999645
210
0
220
-0
230
1
100
AcDbArc
50
90
51
180
0
ARC
5
126
100
AcDbEntity
8
0
100
AcDbCircle
10
-89.000001311302185
20
69.00000111758709
30
0
40
0.99999999999999645
210
0
220
0
230
1
100
AcDbArc
50
0
51
90
0
ARC
5
127
100
AcDbEntity
8
0
100
AcDbCircle
10
-81.00000116000443
20
69.000001117587104
30
0
40
0.99999999999998757
210
0
220
-0
230
1
100
AcDbArc
50
90
51
180
0
ARC
5
128
100
AcDbEntity
8
0
100
AcDbCircle
10
-81.000001192092896
20
69.00000111758709
30
0
40
0.99999999999999645
210
0
220
-0
230
1
100
AcDbArc
50
0
51
90
0
ARC
5
129
100
AcDbEntity
8
0
100
AcDbCircle
10
-89.000001341104507
20
51.000000819563866
30
0
40
0.99999999999999645
210
0
220
0
230
1
100
AcDbArc
50
180
51
270
0
ARC
5
130
100
AcDbEntity
8
0
100
AcDbCircle
10
-89.000001311302185
20
51.000000819563866
30
0
40
0.99999999999999645
210
0
220
0
230
1
100
AcDbArc
50
-90
51
0
0
ARC
5
131
100
AcDbEntity
8
0
100
AcDbCircle
10
-81.000005292131021
20
50.999998770654209
30
0
40
1.0000000000000129
210
0
220
0
230
1
100
AcDbArc
50
180.00040823238453
51
270.00000000000159
0
ARC
5
132
100
AcDbEntity
8
0
100
AcDbCircle
10
-81.000001192092896
20
50.999998770654202
30
0
40
0.99999999999999645
210
-0
220
0
230
1
100
AcDbArc
50
-90
51
0
0
LWPOLYLINE
5
133
100
AcDbEntity
8
0
100
AcDbPolyline
90
29
70
1
43
0.0
10
-71.722196403544956
20
-29.599747866381705
10
-71.956867022542724
20
-29.652421901180123
10
-72.164483247289169
20
-29.761145662490289
10
-72.279764344641222
20
-29.734928446307048
10
-72.501541393330328
20
-29.734928446307048
10
-72.670429950946385
20
-29.823371434077824
10
-72.848374253593221
20
-29.782903357712964
10
-73.091039033079895
20
-29.880541287499049
10
-73.105112528295251
20
-29.845563675616852
10
-73.105112528295251
20
-29.776885900530601
10
-72.90582076021812
20
-29.555616707242372
10
-72.853431814147825
20
-29.325254522718556
10
-73.036937170824331
20
-29.08098498830595
10
-73.362054069165936
20
-28.939703908520968
10
-73.56968404251019
20
-28.915434385570997
10
-84.000249594460428
20
-28.915434385570997
10
-84.000249594460428
20
-32.899999264627695
10
-87.317153646487625
20
-32.899999264627695
10
-89.199990351484615
20
-31.017162478894093
10
-89.199991623389408
20
-32.999999262392521
10
-89.199991623387092
20
-34.982833523749676
10
-87.317157359796028
20
-33.099999260157347
10
-84.000249594460428
20
-33.099999260157347
10
-84.000249594460428
20
-37.569086092928856
10
-78.224032775050759
20
-37.569086092928856
10
-71.033461856875462
20
-30.024880539433475
10
-71.234073344656423
20
-29.683833453787681
10
-71.416821397832194
20
-29.683833453787681
10
-71.536822471801486
20
-29.599747866381705
0
LWPOLYLINE
5
134
100
AcDbEntity
8
0
100
AcDbPolyline
90
31
70
1
43
0.0
10
-71.348607668036763
20
-29.884084921324071
10
-71.479997325645996
20
-29.884084921324071
10
-71.599998399615288
20
-29.799999333918095
10
-71.699998397380114
20
-29.799999333918095
10
-71.887305264234598
20
-29.842042127621085
10
-72.136945613692134
20
-29.972772940210298
10
-72.302247883088967
20
-29.935179913843438
10
-72.45228079195428
20
-29.935179913843438
10
-72.64289231734935
20
-30.034998711797833
10
-72.831719924820931
20
-29.992055555285994
10
-73.099998366087675
20
-30.099999327212572
10
-73.230536453079111
20
-30.07031236789825
10
-73.305363995831641
20
-29.88433946575508
10
-73.305363995831641
20
-29.699999336153269
10
-73.089520631359036
20
-29.46035327553431
10
-73.069276500453839
20
-29.371336744969845
10
-73.165267409583393
20
-29.243560340479085
10
-73.414710033941873
20
-29.13516387295147
10
-73.581347868124396
20
-29.115685853107387
10
-83.799998126924038
20
-29.115685853107387
10
-83.799998126924038
20
-32.899999264627695
10
-80.061246818507726
20
-32.899999264627688
42
-0.15345641763763526
10
-79.903111101441183
20
-32.596886383987865
10
-79.860553342523886
20
-32.639444142905155
42
0.4142135623730987
10
-79.860553342523886
20
-33.360554381879886
10
-79.903111101441183
20
-33.40311214079717
42
-0.15345641763763526
10
-80.061246818507726
20
-33.099999260157347
10
-83.799998126924038
20
-33.099999260157347
10
-83.799998126924038
20
-37.368834625392466
10
-78.30980861327383
20
-37.368834625392466
10
-71.282699975621455
20
-29.996130480970304
0
LWPOLYLINE
5
135
100
AcDbEntity
8
0
100
AcDbPolyline
90
3
70
1
43
0.0
10
-88.999945639247528
20
-32.899999264627695
10
-87.599995862234593
20
-32.899999264627695
10
-88.999943735321892
20
-31.500051391540396
0
LWPOLYLINE
5
136
100
AcDbEntity
8
0
100
AcDbPolyline
90
4
70
1
43
0.0
10
-84.964464780469712
20
-29.464464691928313
10
-84.787688118399672
20
-29.287687963405094
42
0.41421350732150075
10
-92.212308623100228
20
-29.287688661163148
10
-92.035531927803589
20
-29.464465356459787
42
-0.41421350732150097
0
LWPOLYLINE
5
137
100
AcDbEntity
8
0
100
AcDbPolyline
90
3
70
1
43
0.0
10
-89.000035643573739
20
-33.099999260157347
10
-87.600000072270632
20
-33.099999260157347
10
-89.000035316644244
20
-34.500034504531875
0
LWPOLYLINE
5
138
100
AcDbEntity
8
0
100
AcDbPolyline
90
4
70
1
43
0.0
10
-86.73223224410556
20
-31.232232820096005
10
-86.555316107566412
20
-31.055316617051282
42
0.41421350732150175
10
-90.444680301693722
20
-31.05531698256965
10
-90.267764131901771
20
-31.232233152361573
42
-0.41421350732149914
0
LWPOLYLINE
5
139
100
AcDbEntity
8
0
100
AcDbPolyline
90
4
70
1
43
0.0
10
-85.954414088062038
20
-30.454414371658288
10
-85.777637425991969
20
-30.27763764313508
42
0.41421350732150164
10
-91.22235912943907
20
-30.277638154824309
10
-91.045582434142432
20
-30.454414850120955
42
-0.41421350732150075
0
LWPOLYLINE
5
140
100
AcDbEntity
8
0
100
AcDbPolyline
90
4
70
1
43
0.0
10
-85.954413131136619
20
-35.545583196201335
10
-85.77763640261341
20
-35.722359858271403
42
-0.41421361742469004
10
-91.222359129439056
20
-35.722360369960732
10
-91.045582434142432
20
-35.545583674664087
42
0.41421361742469143
0
LWPOLYLINE
5
141
100
AcDbEntity
8
0
100
AcDbPolyline
90
4
70
1
43
0.0
10
-86.732231579574346
20
-34.767765040157819
10
-86.555315376529606
20
-34.94468117669696
42
-0.41421361742469182
10
-90.444680301693722
20
-34.944681542215399
10
-90.267764131901785
20
-34.767765372423455
42
0.41421361742469126
0
LWPOLYLINE
5
142
100
AcDbEntity
8
0
100
AcDbPolyline
90
4
70
1
43
0.0
10
-84.96446345140663
20
-36.535532503793661
10
-84.787686722883421
20
-36.712309165863701
42
-0.41421361742469082
10
-92.212308623100213
20
-36.71230986362189
10
-92.035531927803589
20
-36.535533168325259
42
0.41421361742469109
0
LINE
5
143
100
AcDbEntity
8
0
100
AcDbLine
10
-66.539124462051845
20
-42.112598450283151
30
0
11
-66.539124462051845
21
-25.143337312601979
31
0
6
DASHED
0
LINE
5
144
100
AcDbEntity
8
0
100
AcDbLine
10
-66.539124462051845
20
-25.143337312601979
30
0
11
-69.579859116780852
21
-25.143337312601979
31
0
6
DASHED
0
LINE
5
145
100
AcDbEntity
8
0
100
AcDbLine
10
-69.579859116780852
20
-25.143337312601979
30
0
11
-69.579859116780852
21
-42.112598450283151
31
0
6
DASHED
0
LINE
5
146
100
AcDbEntity
8
0
100
AcDbLine
10
-69.579859116780852
20
-42.112598450283151
30
0
11
-66.539124462051845
21
-42.112598450283151
31
0
6
DASHED
0
LINE
5
147
100
AcDbEntity
8
0
100
AcDbLine
10
-68.794306108462905
20
-40.268298679391485
30
0
11
-68.859016487109756
21
-40.268298679391485
31
0
0
LINE
5
148
100
AcDbEntity
8
0
100
AcDbLine
10
-68.859016487109756
20
-40.268298679391485
30
0
11
-69.232229331243133
21
-40.530149781505209
31
0
0
LINE
5
149
100
AcDbEntity
8
0
100
AcDbLine
10
-69.232229331243133
20
-40.530149781505209
30
0
11
-67.706269958722686
21
-40.530149781505209
31
0
0
SPLINE
5
150
100
AcDbEntity
8
0
100
AcDbSpline
70
0
71
2
72
6
73
3
74
0
42
0.000000001
43
0.0000000001
44
0.0000000001
40
0
40
0
40
0
40
1
40
1
40
1
10
-67.706269958722686
20
-40.530149781505209
30
0
10
-67.653598824250793
20
-40.530149781505209
30
0
10
-67.616729179132079
20
-40.567019575635534
30
0
0
SPLINE
5
151
100
AcDbEntity
8
0
100
AcDbSpline
70
0
71
2
72
6
73
3
74
0
42
0.000000001
43
0.0000000001
44
0.0000000001
40
0
40
0
40
0
40
1
40
1
40
1
10
-67.616729179132079
20
-40.567019575635534
30
0
10
-67.579859235990142
20
-40.603889369765859
30
0
10
-67.579859235990142
20
-40.656560653249365
30
0
0
SPLINE
5
152
100
AcDbEntity
8
0
100
AcDbSpline
70
0
71
2
72
6
73
3
74
0
42
0.000000001
43
0.0000000001
44
0.0000000001
40
0
40
0
40
0
40
1
40
1
40
1
10
-67.579859235990142
20
-40.656560653249365
30
0
10
-67.579859235990142
20
-40.709231787721258
30
0
10
-67.617481389749145
20
-40.746101581851583
30
0
0
SPLINE
5
153
100
AcDbEntity
8
0
100
AcDbSpline
70
0
71
2
72
6
73
3
74
0
42
0.000000001
43
0.0000000001
44
0.0000000001
40
0
40
0
40
0
40
1
40
1
40
1
10
-67.617481389749145
20
-40.746101581851583
30
0
10
-67.655103841531371
20
-40.782971375981909
30
0
10
-67.706269958722686
20
-40.782971375981909
30
0
0
LINE
5
154
100
AcDbEntity
8
0
100
AcDbLine
10
-67.706269958722686
20
-40.782971375981909
30
0
11
-69.579859116780852
21
-40.782971375981909
31
0
0
LINE
5
155
100
AcDbEntity
8
0
100
AcDbLine
10
-69.579859116780852
20
-40.782971375981909
30
0
11
-69.579859116780852
21
-40.456033938924413
31
0
0
LINE
5
156
100
AcDbEntity
8
0
100
AcDbLine
10
-69.579859116780852
20
-40.456033938924413
30
0
11
-69.12674594830284
21
-40.145438456336599
31
0
0
LINE
5
157
100
AcDbEntity
8
0
100
AcDbLine
10
-69.12674594830284
20
-40.145438456336599
30
0
11
-69.579859116780852
21
-39.82447355369721
31
0
0
LINE
5
158
100
AcDbEntity
8
0
100
AcDbLine
10
-69.579859116780852
20
-39.82447355369721
30
0
11
-69.579859116780852
21
-39.503813975850683
31
0
0
LINE
5
159
100
AcDbEntity
8
0
100
AcDbLine
10
-69.579859116780852
20
-39.503813975850683
30
0
11
-67.706269958722686
21
-39.503813975850683
31
0
0
SPLINE
5
160
100
AcDbEntity
8
0
100
AcDbSpline
70
0
71
2
72
6
73
3
74
0
42
0.000000001
43
0.0000000001
44
0.0000000001
40
0
40
0
40
0
40
1
40
1
40
1
10
-67.706269958722686
20
-39.503813975850683
30
0
10
-67.653598824250793
20
-39.503813975850683
30
0
10
-67.616729179132079
20
-39.542188936273199
30
0
0
SPLINE
5
161
100
AcDbEntity
8
0
100
AcDbSpline
70
0
71
2
72
6
73
3
74
0
42
0.000000001
43
0.0000000001
44
0.0000000001
40
0
40
0
40
0
40
1
40
1
40
1
10
-67.616729179132079
20
-39.542188936273199
30
0
10
-67.579859235990142
20
-39.580563598672491
30
0
10
-67.579859235990142
20
-39.633234733144384
30
0
0
SPLINE
5
162
100
AcDbEntity
8
0
100
AcDbSpline
70
0
71
2
72
6
73
3
74
0
42
0.000000001
43
0.0000000001
44
0.0000000001
40
0
40
0
40
0
40
1
40
1
40
1
10
-67.579859235990142
20
-39.633234733144384
30
0
10
-67.579859235990142
20
-39.684401148358923
30
0
10
-67.617481389749145
20
-39.722023600141149
30
0
0
SPLINE
5
163
100
AcDbEntity
8
0
100
AcDbSpline
70
0
71
2
72
6
73
3
74
0
42
0.000000001
43
0.0000000001
44
0.0000000001
40
0
40
0
40
0
40
1
40
1
40
1
10
-67.617481389749145
20
-39.722023600141149
30
0
10
-67.655103841531371
20
-39.759645455876928
30
0
10
-67.706269958722686
20
-39.759645455876928
30
0
0
LINE
5
164
100
AcDbEntity
8
0
100
AcDbLine
10
-67.706269958722686
20
-39.759645455876928
30
0
11
-69.226209858167266
21
-39.759645455876928
31
0
0
LINE
5
165
100
AcDbEntity
8
0
100
AcDbLine
10
-69.226209858167266
20
-39.759645455876928
30
0
11
-68.865035960185622
21
-40.015477084914785
31
0
0
LINE
5
166
100
AcDbEntity
8
0
100
AcDbLine
10
-68.865035960185622
20
-40.015477084914785
30
0
11
-68.794306108462905
21
-40.015477084914785
31
0
0
SPLINE
5
167
100
AcDbEntity
8
0
100
AcDbSpline
70
0
71
2
72
6
73
3
74
0
42
0.000000001
43
0.0000000001
44
0.0000000001
40
0
40
0
40
0
40
1
40
1
40
1
10
-68.794306108462905
20
-40.015477084914785
30
0
10
-68.743139842259978
20
-40.015477084914785
30
0
10
-68.705517539489364
20
-40.0530993876854
30
0
0
SPLINE
5
168
100
AcDbEntity
8
0
100
AcDbSpline
70
0
71
2
72
6
73
3
74
0
42
0.000000001
43
0.0000000001
44
0.0000000001
40
0
40
0
40
0
40
1
40
1
40
1
10
-68.705517539489364
20
-40.0530993876854
30
0
10
-68.667895236718749
20
-40.090721690456014
30
0
10
-68.667895236718749
20
-40.141887956658941
30
0
0
SPLINE
5
169
100
AcDbEntity
8
0
100
AcDbSpline
70
0
71
2
72
6
73
3
74
0
42
0.000000001
43
0.0000000001
44
0.0000000001
40
0
40
0
40
0
40
1
40
1
40
1
10
-68.667895236718749
20
-40.141887956658941
30
0
10
-68.667895236718749
20
-40.194559091130834
30
0
10
-68.705517539489364
20
-40.23142888526116
30
0
0
SPLINE
5
170
100
AcDbEntity
8
0
100
AcDbSpline
70
0
71
2
72
6
73
3
74
0
42
0.000000001
43
0.0000000001
44
0.0000000001
40
0
40
0
40
0
40
1
40
1
40
1
10
-68.705517539489364
20
-40.23142888526116
30
0
10
-68.743139842259978
20
-40.268298679391485
30
0
10
-68.794306108462905
20
-40.268298679391485
30
0
0
LINE
5
171
100
AcDbEntity
8
0
100
AcDbLine
10
-68.556533345687484
20
-37.642264359990698
30
0
11
-68.251040616738891
21
-37.642264359990698
31
0
0
SPLINE
5
172
100
AcDbEntity
8
0
100
AcDbSpline
70
0
71
2
72
6
73
3
74
0
42
0.000000001
43
0.0000000001
44
0.0000000001
40
0
40
0
40
0
40
1
40
1
40
1
10
-68.251040616738891
20
-37.642264359990698
30
0
10
-68.199874201524352
20
-37.642264359990698
30
0
10
-68.16225204776535
20
-37.6798865137497
30
0
0
SPLINE
5
173
100
AcDbEntity
8
0
100
AcDbSpline
70
0
71
2
72
6
73
3
74
0
42
0.000000001
43
0.0000000001
44
0.0000000001
40
0
40
0
40
0
40
1
40
1
40
1
10
-68.16225204776535
20
-37.6798865137497
30
0
10
-68.124629744994735
20
-37.717508667508703
30
0
10
-68.124629744994735
20
-37.768675082723242
30
0
0
LINE
5
174
100
AcDbEntity
8
0
100
AcDbLine
10
-68.124629744994735
20
-37.768675082723242
30
0
11
-68.124629744994735
21
-38.662580245534521
31
0
0
LINE
5
175
100
AcDbEntity
8
0
100
AcDbLine
10
-68.124629744994735
20
-38.662580245534521
30
0
11
-68.050890007722472
21
-38.662580245534521
31
0
0
SPLINE
5
176
100
AcDbEntity
8
0
100
AcDbSpline
70
0
71
2
72
6
73
3
74
0
42
0.000000001
43
0.0000000001
44
0.0000000001
40
0
40
0
40
0
40
1
40
1
40
1
10
-68.050890007722472
20
-38.662580245534521
30
0
10
-67.986179778087234
20
-38.662580245534521
30
0
10
-67.941032984960174
20
-38.606899374524694
30
0
0
LINE
5
177
100
AcDbEntity
8
0
100
AcDbLine
10
-67.941032984960174
20
-38.606899374524694
30
0
11
-67.879332491862868
21
-38.533159786264044
31
0
0
SPLINE
5
178
100
AcDbEntity
8
0
100
AcDbSpline
70
0
71
2
72
6
73
3
74
0
42
0.000000001
43
0.0000000001
44
0.0000000001
40
0
40
0
40
0
40
1
40
1
40
1
10
-67.879332491862868
20
-38.533159786264044
30
0
10
-67.832680830466842
20
-38.472964161435705
30
0
10
-67.832680830466842
20
-38.418788009683233
30
0
0
LINE
5
179
100
AcDbEntity
8
0
100
AcDbLine
10
-67.832680830466842
20
-38.418788009683233
30
0
11
-67.832680830466842
21
-37.768675082723242
31
0
0
SPLINE
5
180
100
AcDbEntity
8
0
100
AcDbSpline
70
0
71
2
72
6
73
3
74
0
42
0.000000001
43
0.0000000001
44
0.0000000001
40
0
40
0
40
0
40
1
40
1
40
1
10
-67.832680830466842
20
-37.768675082723242
30
0
10
-67.832680830466842
20
-37.717508667508703
30
0
10
-67.795811036336517
20
-37.6798865137497
30
0
0
SPLINE
5
181
100
AcDbEntity
8
0
100
AcDbSpline
70
0
71
2
72
6
73
3
74
0
42
0.000000001
43
0.0000000001
44
0.0000000001
40
0
40
0
40
0
40
1
40
1
40
1
10
-67.795811036336517
20
-37.6798865137497
30
0
10
-67.758941242206191
20
-37.642264359990698
30
0
10
-67.706269958722686
20
-37.642264359990698
30
0
0
SPLINE
5
182
100
AcDbEntity
8
0
100
AcDbSpline
70
0
71
2
72
6
73
3
74
0
42
0.000000001
43
0.0000000001
44
0.0000000001
40
0
40
0
40
0
40
1
40
1
40
1
10
-67.706269958722686
20
-37.642264359990698
30
0
10
-67.655103841531371
20
-37.642264359990698
30
0
10
-67.617481389749145
20
-37.68063902238999
30
0
0
SPLINE
5
183
100
AcDbEntity
8
0
100
AcDbSpline
70
0
71
2
72
6
73
3
74
0
42
0.000000001
43
0.0000000001
44
0.0000000001
40
0
40
0
40
0
40
1
40
1
40
1
10
-67.617481389749145
20
-37.68063902238999
30
0
10
-67.579859235990142
20
-37.719013684789282
30
0
10
-67.579859235990142
20
-37.768675082723242
30
0
0
LINE
5
184
100
AcDbEntity
8
0
100
AcDbLine
10
-67.579859235990142
20
-37.768675082723242
30
0
11
-67.579859235990142
21
-38.435341709653478
31
0
0
SPLINE
5
185
100
AcDbEntity
8
0
100
AcDbSpline
70
0
71
2
72
6
73
3
74
0
42
0.000000001
43
0.0000000001
44
0.0000000001
40
0
40
0
40
0
40
1
40
1
40
1
10
-67.579859235990142
20
-38.435341709653478
30
0
10
-67.579859235990142
20
-38.501557105580908
30
0
10
-67.607699671495055
20
-38.574544185201269
30
0
0
SPLINE
5
186
100
AcDbEntity
8
0
100
AcDbSpline
70
0
71
2
72
6
73
3
74
0
42
0.000000001
43
0.0000000001
44
0.0000000001
40
0
40
0
40
0
40
1
40
1
40
1
10
-67.607699671495055
20
-38.574544185201269
30
0
10
-67.635540106999969
20
-38.64753126482163
30
0
10
-67.66563806842575
20
-38.6821436820427
30
0
0
LINE
5
187
100
AcDbEntity
8
0
100
AcDbLine
10
-67.66563806842575
20
-38.6821436820427
30
0
11
-67.76496086429367
21
-38.795010739366155
31
0
0
SPLINE
5
188
100
AcDbEntity
8
0
100
AcDbSpline
70
0
71
2
72
6
73
3
74
0
42
0.000000001
43
0.0000000001
44
0.0000000001
40
0
40
0
40
0
40
1
40
1
40
1
10
-67.76496086429367
20
-38.795010739366155
30
0
10
-67.807097771871184
20
-38.847681873838049
30
0
10
-67.882342228400802
20
-38.883046799699407
30
0
0
SPLINE
5
189
100
AcDbEntity
8
0
100
AcDbSpline
70
0
71
2
72
6
73
3
74
0
42
0.000000001
43
0.0000000001
44
0.0000000001
40
0
40
0
40
0
40
1
40
1
40
1
10
-67.882342228400802
20
-38.883046799699407
30
0
10
-67.957586833942031
20
-38.918411725560766
30
0
10
-68.020792195308303
20
-38.918411725560766
30
0
0
LINE
5
190
100
AcDbEntity
8
0
100
AcDbLine
10
-68.020792195308303
20
-38.918411725560766
30
0
11
-68.600175121533965
21
-38.918411725560766
31
0
0
SPLINE
5
191
100
AcDbEntity
8
0
100
AcDbSpline
70
0
71
2
72
6
73
3
74
0
42
0.000000001
43
0.0000000001
44
0.0000000001
40
0
40
0
40
0
40
1
40
1
40
1
10
-68.600175121533965
20
-38.918411725560766
30
0
10
-68.649836519467925
20
-38.918411725560766
30
0
10
-68.734110483634566
20
-38.880037063161474
30
0
0
SPLINE
5
192
100
AcDbEntity
8
0
100
AcDbSpline
70
0
71
2
72
6
73
3
74
0
42
0.000000001
43
0.0000000001
44
0.0000000001
40
0
40
0
40
0
40
1
40
1
40
1
10
-68.734110483634566
20
-38.880037063161474
30
0
10
-68.818384447801208
20
-38.841662400762182
30
0
10
-68.865035960185622
20
-38.782971495191198
30
0
0
LINE
5
193
100
AcDbEntity
8
0
100
AcDbLine
10
-68.865035960185622
20
-38.782971495191198
30
0
11
-68.947805056083297
21
-38.677629226247412
31
0
0
SPLINE
5
194
100
AcDbEntity
8
0
100
AcDbSpline
70
0
71
2
72
6
73
3
74
0
42
0.000000001
43
0.0000000001
44
0.0000000001
40
0
40
0
40
0
40
1
40
1
40
1
10
-68.947805056083297
20
-38.677629226247412
30
0
10
-69.032078871238326
20
-38.57379167656098
30
0
10
-69.032078871238326
20
-38.447380953828436
30
0
0
LINE
5
195
100
AcDbEntity
8
0
100
AcDbLine
10
-69.032078871238326
20
-38.447380953828436
30
0
11
-69.032078871238326
21
-38.092226677934271
31
0
0
SPLINE
5
196
100
AcDbEntity
8
0
100
AcDbSpline
70
0
71
2
72
6
73
3
74
0
42
0.000000001
43
0.0000000001
44
0.0000000001
40
0
40
0
40
0
40
1
40
1
40
1
10
-69.032078871238326
20
-38.092226677934271
30
0
10
-69.032078871238326
20
-37.958291464845281
30
0
10
-68.920716980207061
20
-37.839404934445959
30
0
0
LINE
5
197
100
AcDbEntity
8
0
100
AcDbLine
10
-68.920716980207061
20
-37.839404934445959
30
0
11
-68.830423542964553
21
-37.744596892396551
31
0
0
SPLINE
5
198
100
AcDbEntity
8
0
100
AcDbSpline
70
0
71
2
72
6
73
3
74
0
42
0.000000001
43
0.0000000001
44
0.0000000001
40
0
40
0
40
0
40
1
40
1
40
1
10
-68.830423542964553
20
-37.744596892396551
30
0
10
-68.738625088441466
20
-37.642264359990698
30
0
10
-68.556533345687484
20
-37.642264359990698
30
0
0
LINE
5
199
100
AcDbEntity
8
0
100
AcDbLine
10
-68.576096931207275
20
-38.659570508996588
30
0
11
-68.380461076009368
21
-38.659570508996588
31
0
0
LINE
5
200
100
AcDbEntity
8
0
100
AcDbLine
10
-68.380461076009368
20
-38.659570508996588
30
0
11
-68.380461076009368
21
-37.892076366941076
31
0
0
LINE
5
201
100
AcDbEntity
8
0
100
AcDbLine
10
-68.380461076009368
20
-37.892076366941076
30
0
11
-68.556533345687484
21
-37.892076366941076
31
0
0
SPLINE
5
202
100
AcDbEntity
8
0
100
AcDbSpline
70
0
71
2
72
6
73
3
74
0
42
0.000000001
43
0.0000000001
44
0.0000000001
40
0
40
0
40
0
40
1
40
1
40
1
10
-68.556533345687484
20
-37.892076366941076
30
0
10
-68.627263346421813
20
-37.892076366941076
30
0
10
-68.664885500180816
20
-37.935717993775945
30
0
0
LINE
5
203
100
AcDbEntity
8
0
100
AcDbLine
10
-68.664885500180816
20
-37.935717993775945
30
0
11
-68.729595878827666
21
-38.009457582036596
31
0
0
SPLINE
5
204
100
AcDbEntity
8
0
100
AcDbSpline
70
0
71
2
72
6
73
3
74
0
42
0.000000001
43
0.0000000001
44
0.0000000001
40
0
40
0
40
0
40
1
40
1
40
1
10
-68.729595878827666
20
-38.009457582036596
30
0
10
-68.776247540223693
20
-38.066643470327001
30
0
10
-68.776247540223693
20
-38.111790412465673
30
0
0
LINE
5
205
100
AcDbEntity
8
0
100
AcDbLine
10
-68.776247540223693
20
-38.111790412465673
30
0
11
-68.776247540223693
21
-38.429322236577612
31
0
0
SPLINE
5
206
100
AcDbEntity
8
0
100
AcDbSpline
70
0
71
2
72
6
73
3
74
0
42
0.000000001
43
0.0000000001
44
0.0000000001
40
0
40
0
40
0
40
1
40
1
40
1
10
-68.776247540223693
20
-38.429322236577612
30
0
10
-68.776247540223693
20
-38.488012844125372
30
0
10
-68.735615351903533
20
-38.536169522801977
30
0
0
LINE
5
207
100
AcDbEntity
8
0
100
AcDbLine
10
-68.735615351903533
20
-38.536169522801977
30
0
11
-68.673914858806228
21
-38.609909111062628
31
0
0
SPLINE
5
208
100
AcDbEntity
8
0
100
AcDbSpline
70
0
71
2
72
6
73
3
74
0
42
0.000000001
43
0.0000000001
44
0.0000000001
40
0
40
0
40
0
40
1
40
1
40
1
10
-68.673914858806228
20
-38.609909111062628
30
0
10
-68.636292556035613
20
-38.659570508996588
30
0
10
-68.576096931207275
20
-38.659570508996588
30
0
0
LINE
5
209
100
AcDbEntity
8
0
100
AcDbLine
10
-69.032078871238326
20
-36.700202816526037
30
0
11
-69.032078871238326
21
-36.120820039311987
31
0
0
SPLINE
5
210
100
AcDbEntity
8
0
100
AcDbSpline
70
0
71
2
72
6
73
3
74
0
42
0.000000001
43
0.0000000001
44
0.0000000001
40
0
40
0
40
0
40
1
40
1
40
1
10
-69.032078871238326
20
-36.120820039311987
30
0
10
-69.032078871238326
20
-35.985379212895971
30
0
10
-68.951567152249908
20
-35.881541961232763
30
0
0
SPLINE
5
211
100
AcDbEntity
8
0
100
AcDbSpline
70
0
71
2
72
6
73
3
74
0
42
0.000000001
43
0.0000000001
44
0.0000000001
40
0
40
0
40
0
40
1
40
1
40
1
10
-68.951567152249908
20
-35.881541961232763
30
0
10
-68.871055582273101
20
-35.777704709569555
30
0
10
-68.794306108462905
20
-35.777704709569555
30
0
0
SPLINE
5
212
100
AcDbEntity
8
0
100
AcDbSpline
70
0
71
2
72
6
73
3
74
0
42
0.000000001
43
0.0000000001
44
0.0000000001
40
0
40
0
40
0
40
1
40
1
40
1
10
-68.794306108462905
20
-35.777704709569555
30
0
10
-68.740130105722045
20
-35.777704709569555
30
0
10
-68.705517539489364
20
-35.816079371968847
30
0
0
SPLINE
5
213
100
AcDbEntity
8
0
100
AcDbSpline
70
0
71
2
72
6
73
3
74
0
42
0.000000001
43
0.0000000001
44
0.0000000001
40
0
40
0
40
0
40
1
40
1
40
1
10
-68.705517539489364
20
-35.816079371968847
30
0
10
-68.670904973256683
20
-35.854454034368139
30
0
10
-68.670904973256683
20
-35.901105397740942
30
0
0
SPLINE
5
214
100
AcDbEntity
8
0
100
AcDbSpline
70
0
71
2
72
6
73
3
74
0
42
0.000000001
43
0.0000000001
44
0.0000000001
40
0
40
0
40
0
40
1
40
1
40
1
10
-68.670904973256683
20
-35.901105397740942
30
0
10
-68.670904973256683
20
-35.961301320592504
30
0
10
-68.725081125009154
20
-36.010962718526464
30
0
0
SPLINE
5
215
100
AcDbEntity
8
0
100
AcDbSpline
70
0
71
2
72
6
73
3
74
0
42
0.000000001
43
0.0000000001
44
0.0000000001
40
0
40
0
40
0
40
1
40
1
40
1
10
-68.725081125009154
20
-36.010962718526464
30
0
10
-68.779257276761626
20
-36.060624116460424
30
0
10
-68.779257276761626
20
-36.114799970189672
30
0
0
LINE
5
216
100
AcDbEntity
8
0
100
AcDbLine
10
-68.779257276761626
20
-36.114799970189672
30
0
11
-68.779257276761626
21
-36.686658853093725
31
0
0
SPLINE
5
217
100
AcDbEntity
8
0
100
AcDbSpline
70
0
71
2
72
6
73
3
74
0
42
0.000000001
43
0.0000000001
44
0.0000000001
40
0
40
0
40
0
40
1
40
1
40
1
10
-68.779257276761626
20
-36.686658853093725
30
0
10
-68.779257276761626
20
-36.770932668248754
30
0
10
-68.709138670671081
20
-36.770932668248754
30
0
0
SPLINE
5
218
100
AcDbEntity
8
0
100
AcDbSpline
70
0
71
2
72
6
73
3
74
0
42
0.000000001
43
0.0000000001
44
0.0000000001
40
0
40
0
40
0
40
1
40
1
40
1
10
-68.709138670671081
20
-36.770932668248754
30
0
10
-68.659924009549712
20
-36.770932668248754
30
0
10
-68.634552547443008
20
-36.714687341252905
30
0
0
LINE
5
219
100
AcDbEntity
8
0
100
AcDbLine
10
-68.634552547443008
20
-36.714687341252905
30
0
11
-68.33531443189392
21
-36.042565101186376
31
0
0
SPLINE
5
220
100
AcDbEntity
8
0
100
AcDbSpline
70
0
71
2
72
6
73
3
74
0
42
0.000000001
43
0.0000000001
44
0.0000000001
40
0
40
0
40
0
40
1
40
1
40
1
10
-68.33531443189392
20
-36.042565101186376
30
0
10
-68.290167787778472
20
-35.940232866803747
30
0
10
-68.190092483270263
20
-35.874770277539831
30
0
0
SPLINE
5
221
100
AcDbEntity
8
0
100
AcDbSpline
70
0
71
2
72
6
73
3
74
0
42
0.000000001
43
0.0000000001
44
0.0000000001
40
0
40
0
40
0
40
1
40
1
40
1
10
-68.190092483270263
20
-35.874770277539831
30
0
10
-68.090017178762054
20
-35.809307092229467
30
0
10
-67.96812106083641
20
-35.809307092229467
30
0
0
SPLINE
5
222
100
AcDbEntity
8
0
100
AcDbSpline
70
0
71
2
72
6
73
3
74
0
42
0.000000001
43
0.0000000001
44
0.0000000001
40
0
40
0
40
0
40
1
40
1
40
1
10
-67.96812106083641
20
-35.809307092229467
30
0
10
-67.805592903602218
20
-35.809307092229467
30
0
10
-67.692725995290374
20
-35.924431675473791
30
0
0
SPLINE
5
223
100
AcDbEntity
8
0
100
AcDbSpline
70
0
71
2
72
6
73
3
74
0
42
0.000000001
43
0.0000000001
44
0.0000000001
40
0
40
0
40
0
40
1
40
1
40
1
10
-67.692725995290374
20
-35.924431675473791
30
0
10
-67.579859235990142
20
-36.039555662671667
30
0
10
-67.579859235990142
20
-36.185530417958837
30
0
0
LINE
5
224
100
AcDbEntity
8
0
100
AcDbLine
10
-67.579859235990142
20
-36.185530417958837
30
0
11
-67.579859235990142
21
-36.69719278196488
31
0
0
SPLINE
5
225
100
AcDbEntity
8
0
100
AcDbSpline
70
0
71
2
72
6
73
3
74
0
42
0.000000001
43
0.0000000001
44
0.0000000001
40
0
40
0
40
0
40
1
40
1
40
1
10
-67.579859235990142
20
-36.69719278196488
30
0
10
-67.579859235990142
20
-36.82962297777329
30
0
10
-67.659618595349883
20
-36.943242543737036
30
0
0
SPLINE
5
226
100
AcDbEntity
8
0
100
AcDbSpline
70
0
71
2
72
6
73
3
74
0
42
0.000000001
43
0.0000000001
44
0.0000000001
40
0
40
0
40
0
40
1
40
1
40
1
10
-67.659618595349883
20
-36.943242543737036
30
0
10
-67.739377656686401
20
-37.056862109700781
30
0
10
-67.81462226222763
20
-37.056862109700781
30
0
0
SPLINE
5
227
100
AcDbEntity
8
0
100
AcDbSpline
70
0
71
2
72
6
73
3
74
0
42
0.000000001
43
0.0000000001
44
0.0000000001
40
0
40
0
40
0
40
1
40
1
40
1
10
-67.81462226222763
20
-37.056862109700781
30
0
10
-67.86428366016159
20
-37.056862109700781
30
0
10
-67.902658322560882
20
-37.01999186853562
30
0
0
SPLINE
5
228
100
AcDbEntity
8
0
100
AcDbSpline
70
0
71
2
72
6
73
3
74
0
42
0.000000001
43
0.0000000001
44
0.0000000001
40
0
40
0
40
0
40
1
40
1
40
1
10
-67.902658322560882
20
-37.01999186853562
30
0
10
-67.941032984960174
20
-36.983122223416906
30
0
10
-67.941032984960174
20
-36.924431317845922
30
0
0
SPLINE
5
229
100
AcDbEntity
8
0
100
AcDbSpline
70
0
71
2
72
6
73
3
74
0
42
0.000000001
43
0.0000000001
44
0.0000000001
40
0
40
0
40
0
40
1
40
1
40
1
10
-67.941032984960174
20
-36.924431317845922
30
0
10
-67.941032984960174
20
-36.876274937192541
30
0
10
-67.886856982219314
20
-36.82134627679978
30
0
0
SPLINE
5
230
100
AcDbEntity
8
0
100
AcDbSpline
70
0
71
2
72
6
73
3
74
0
42
0.000000001
43
0.0000000001
44
0.0000000001
40
0
40
0
40
0
40
1
40
1
40
1
10
-67.886856982219314
20
-36.82134627679978
30
0
10
-67.832680830466842
20
-36.766418212453466
30
0
10
-67.832680830466842
20
-36.66258036474381
30
0
0
LINE
5
231
100
AcDbEntity
8
0
100
AcDbLine
10
-67.832680830466842
20
-36.66258036474381
30
0
11
-67.832680830466842
21
-36.191549294988256
31
0
0
SPLINE
5
232
100
AcDbEntity
8
0
100
AcDbSpline
70
0
71
2
72
6
73
3
74
0
42
0.000000001
43
0.0000000001
44
0.0000000001
40
0
40
0
40
0
40
1
40
1
40
1
10
-67.832680830466842
20
-36.191549294988256
30
0
10
-67.832680830466842
20
-36.135869020024877
30
0
10
-67.875570246684646
20
-36.098246568242651
30
0
0
SPLINE
5
233
100
AcDbEntity
8
0
100
AcDbSpline
70
0
71
2
72
6
73
3
74
0
42
0.000000001
43
0.0000000001
44
0.0000000001
40
0
40
0
40
0
40
1
40
1
40
1
10
-67.875570246684646
20
-36.098246568242651
30
0
10
-67.91845966290245
20
-36.060624116460424
30
0
10
-67.974140682923888
20
-36.060624116460424
30
0
0
SPLINE
5
234
100
AcDbEntity
8
0
100
AcDbSpline
70
0
71
2
72
6
73
3
74
0
42
0.000000001
43
0.0000000001
44
0.0000000001
40
0
40
0
40
0
40
1
40
1
40
1
10
-67.974140682923888
20
-36.060624116460424
30
0
10
-68.059919366347884
20
-36.060624116460424
30
0
10
-68.097541669118499
20
-36.144897931615454
30
0
0
LINE
5
235
100
AcDbEntity
8
0
100
AcDbLine
10
-68.097541669118499
20
-36.144897931615454
30
0
11
-68.403034547078704
21
-36.823604100743871
31
0
0
SPLINE
5
236
100
AcDbEntity
8
0
100
AcDbSpline
70
0
71
2
72
6
73
3
74
0
42
0.000000001
43
0.0000000001
44
0.0000000001
40
0
40
0
40
0
40
1
40
1
40
1
10
-68.403034547078704
20
-36.823604100743871
30
0
10
-68.446676322925185
20
-36.921421283284765
30
0
10
-68.529445269811248
20
-36.974092715779882
30
0
0
SPLINE
5
237
100
AcDbEntity
8
0
100
AcDbSpline
70
0
71
2
72
6
73
3
74
0
42
0.000000001
43
0.0000000001
44
0.0000000001
40
0
40
0
40
0
40
1
40
1
40
1
10
-68.529445269811248
20
-36.974092715779882
30
0
10
-68.612214365708923
20
-37.026764148274999
30
0
10
-68.69799319814453
20
-37.026764148274999
30
0
0
SPLINE
5
238
100
AcDbEntity
8
0
100
AcDbSpline
70
0
71
2
72
6
73
3
74
0
42
0.000000001
43
0.0000000001
44
0.0000000001
40
0
40
0
40
0
40
1
40
1
40
1
10
-68.69799319814453
20
-37.026764148274999
30
0
10
-68.833433279502486
20
-37.026764148274999
30
0
10
-68.932756075370406
20
-36.932708018819433
30
0
0
SPLINE
5
239
100
AcDbEntity
8
0
100
AcDbSpline
70
0
71
2
72
6
73
3
74
0
42
0.000000001
43
0.0000000001
44
0.0000000001
40
0
40
0
40
0
40
1
40
1
40
1
10
-68.932756075370406
20
-36.932708018819433
30
0
10
-69.032078871238326
20
-36.838652485410314
30
0
10
-69.032078871238326
20
-36.700202816526037
30
0
0
LINE
5
240
100
AcDbEntity
8
0
100
AcDbLine
10
-67.706269958722686
20
-35.1953113017479
30
0
11
-69.453448245036697
21
-35.1953113017479
31
0
0
SPLINE
5
241
100
AcDbEntity
8
0
100
AcDbSpline
70
0
71
2
72
6
73
3
74
0
42
0.000000001
43
0.0000000001
44
0.0000000001
40
0
40
0
40
0
40
1
40
1
40
1
10
-69.453448245036697
20
-35.1953113017479
30
0
10
-69.504614660251235
20
-35.1953113017479
30
0
10
-69.540731945741271
20
-35.158441656629186
30
0
0
SPLINE
5
242
100
AcDbEntity
8
0
100
AcDbSpline
70
0
71
2
72
6
73
3
74
0
42
0.000000001
43
0.0000000001
44
0.0000000001
40
0
40
0
40
0
40
1
40
1
40
1
10
-69.540731945741271
20
-35.158441656629186
30
0
10
-69.576849380242919
20
-35.121571415464025
30
0
10
-69.576849380242919
20
-35.068900579015356
30
0
0
SPLINE
5
243
100
AcDbEntity
8
0
100
AcDbSpline
70
0
71
2
72
6
73
3
74
0
42
0.000000001
43
0.0000000001
44
0.0000000001
40
0
40
0
40
0
40
1
40
1
40
1
10
-69.576849380242919
20
-35.068900579015356
30
0
10
-69.576849380242919
20
-35.016229146520239
30
0
10
-69.539979586112594
20
-34.979359501401525
30
0
0
SPLINE
5
244
100
AcDbEntity
8
0
100
AcDbSpline
70
0
71
2
72
6
73
3
74
0
42
0.000000001
43
0.0000000001
44
0.0000000001
40
0
40
0
40
0
40
1
40
1
40
1
10
-69.539979586112594
20
-34.979359501401525
30
0
10
-69.503109642970657
20
-34.942489856282812
30
0
10
-69.450438508498763
20
-34.942489856282812
30
0
0
LINE
5
245
100
AcDbEntity
8
0
100
AcDbLine
10
-69.450438508498763
20
-34.942489856282812
30
0
11
-68.812364825713729
21
-34.942489856282812
31
0
0
LINE
5
246
100
AcDbEntity
8
0
100
AcDbLine
10
-68.812364825713729
20
-34.942489856282812
30
0
11
-68.944795170533752
21
-34.739329212705236
31
0
0
SPLINE
5
247
100
AcDbEntity
8
0
100
AcDbSpline
70
0
71
2
72
6
73
3
74
0
42
0.000000001
43
0.0000000001
44
0.0000000001
40
0
40
0
40
0
40
1
40
1
40
1
10
-68.944795170533752
20
-34.739329212705236
30
0
10
-69.032078871238326
20
-34.600879543820959
30
0
10
-69.032078871238326
20
-34.492527240316015
30
0
0
LINE
5
248
100
AcDbEntity
8
0
100
AcDbLine
10
-69.032078871238326
20
-34.492527240316015
30
0
11
-69.032078871238326
21
-34.33601855615769
31
0
0
SPLINE
5
249
100
AcDbEntity
8
0
100
AcDbSpline
70
0
71
2
72
6
73
3
74
0
42
0.000000001
43
0.0000000001
44
0.0000000001
40
0
40
0
40
0
40
1
40
1
40
1
10
-69.032078871238326
20
-34.33601855615769
30
0
10
-69.032078871238326
20
-34.181014889279943
30
0
10
-68.921469339835738
20
-34.06965314726029
30
0
0
SPLINE
5
250
100
AcDbEntity
8
0
100
AcDbSpline
70
0
71
2
72
6
73
3
74
0
42
0.000000001
43
0.0000000001
44
0.0000000001
40
0
40
0
40
0
40
1
40
1
40
1
10
-68.921469339835738
20
-34.06965314726029
30
0
10
-68.810859957444762
20
-33.958290809194189
30
0
10
-68.65284640501747
20
-33.953776353398901
30
0
0
LINE
5
251
100
AcDbEntity
8
0
100
AcDbLine
10
-68.65284640501747
20
-33.953776353398901
30
0
11
-67.706269958722686
21
-33.922173970738989
31
0
0
SPLINE
5
252
100
AcDbEntity
8
0
100
AcDbSpline
70
0
71
2
72
6
73
3
74
0
42
0.000000001
43
0.0000000001
44
0.0000000001
40
0
40
0
40
0
40
1
40
1
40
1
10
-67.706269958722686
20
-33.922173970738989
30
0
10
-67.653598824250793
20
-33.92066895345841
30
0
10
-67.616729179132079
20
-33.958290809194189
30
0
0
SPLINE
5
253
100
AcDbEntity
8
0
100
AcDbSpline
70
0
71
2
72
6
73
3
74
0
42
0.000000001
43
0.0000000001
44
0.0000000001
40
0
40
0
40
0
40
1
40
1
40
1
10
-67.616729179132079
20
-33.958290809194189
30
0
10
-67.579859235990142
20
-33.995913260976415
30
0
10
-67.579859235990142
20
-34.048584693471533
30
0
0
SPLINE
5
254
100
AcDbEntity
8
0
100
AcDbSpline
70
0
71
2
72
6
73
3
74
0
42
0.000000001
43
0.0000000001
44
0.0000000001
40
0
40
0
40
0
40
1
40
1
40
1
10
-67.579859235990142
20
-34.048584693471533
30
0
10
-67.579859235990142
20
-34.101255529920202
30
0
10
-67.618233898389434
20
-34.13737296442185
30
0
0
SPLINE
5
255
100
AcDbEntity
8
0
100
AcDbSpline
70
0
71
2
72
6
73
3
74
0
42
0.000000001
43
0.0000000001
44
0.0000000001
40
0
40
0
40
0
40
1
40
1
40
1
10
-67.618233898389434
20
-34.13737296442185
30
0
10
-67.656608560788726
20
-34.173490398923498
30
0
10
-67.706269958722686
20
-34.174995416204077
30
0
0
LINE
5
256
100
AcDbEntity
8
0
100
AcDbLine
10
-67.706269958722686
20
-34.174995416204077
30
0
11
-68.655856141555404
21
-34.206597798863989
31
0
0
SPLINE
5
257
100
AcDbEntity
8
0
100
AcDbSpline
70
0
71
2
72
6
73
3
74
0
42
0.000000001
43
0.0000000001
44
0.0000000001
40
0
40
0
40
0
40
1
40
1
40
1
10
-68.655856141555404
20
-34.206597798863989
30
0
10
-68.70702240775833
20
-34.208102816144567
30
0
10
-68.744644710528945
20
-34.245725267926794
30
0
0
SPLINE
5
258
100
AcDbEntity
8
0
100
AcDbSpline
70
0
71
2
72
6
73
3
74
0
42
0.000000001
43
0.0000000001
44
0.0000000001
40
0
40
0
40
0
40
1
40
1
40
1
10
-68.744644710528945
20
-34.245725267926794
30
0
10
-68.78226701329956
20
-34.28334771970902
30
0
10
-68.78226701329956
20
-34.33601855615769
30
0
0
LINE
5
259
100
AcDbEntity
8
0
100
AcDbLine
10
-68.78226701329956
20
-34.33601855615769
30
0
11
-68.78226701329956
21
-34.477478259603124
31
0
0
SPLINE
5
260
100
AcDbEntity
8
0
100
AcDbSpline
70
0
71
2
72
6
73
3
74
0
42
0.000000001
43
0.0000000001
44
0.0000000001
40
0
40
0
40
0
40
1
40
1
40
1
10
-68.78226701329956
20
-34.477478259603124
30
0
10
-68.78226701329956
20
-34.525634640256506
30
0
10
-68.744644710528945
20
-34.582820528546911
30
0
0
LINE
5
261
100
AcDbEntity
8
0
100
AcDbLine
10
-68.744644710528945
20
-34.582820528546911
30
0
11
-68.509881833303069
21
-34.942489856282812
31
0
0
LINE
5
262
100
AcDbEntity
8
0
100
AcDbLine
10
-68.509881833303069
20
-34.942489856282812
30
0
11
-67.706269958722686
21
-34.942489856282812
31
0
0
SPLINE
5
263
100
AcDbEntity
8
0
100
AcDbSpline
70
0
71
2
72
6
73
3
74
0
42
0.000000001
43
0.0000000001
44
0.0000000001
40
0
40
0
40
0
40
1
40
1
40
1
10
-67.706269958722686
20
-34.942489856282812
30
0
10
-67.653598824250793
20
-34.942489856282812
30
0
10
-67.616729179132079
20
-34.979359501401525
30
0
0
SPLINE
5
264
100
AcDbEntity
8
0
100
AcDbSpline
70
0
71
2
72
6
73
3
74
0
42
0.000000001
43
0.0000000001
44
0.0000000001
40
0
40
0
40
0
40
1
40
1
40
1
10
-67.616729179132079
20
-34.979359501401525
30
0
10
-67.579859235990142
20
-35.016229146520239
30
0
10
-67.579859235990142
20
-35.068900579015356
30
0
0
SPLINE
5
265
100
AcDbEntity
8
0
100
AcDbSpline
70
0
71
2
72
6
73
3
74
0
42
0.000000001
43
0.0000000001
44
0.0000000001
40
0
40
0
40
0
40
1
40
1
40
1
10
-67.579859235990142
20
-35.068900579015356
30
0
10
-67.579859235990142
20
-35.121571415464025
30
0
10
-67.616729179132079
20
-35.158441656629186
30
0
0
SPLINE
5
266
100
AcDbEntity
8
0
100
AcDbSpline
70
0
71
2
72
6
73
3
74
0
42
0.000000001
43
0.0000000001
44
0.0000000001
40
0
40
0
40
0
40
1
40
1
40
1
10
-67.616729179132079
20
-35.158441656629186
30
0
10
-67.653598824250793
20
-35.1953113017479
30
0
10
-67.706269958722686
20
-35.1953113017479
30
0
0
LINE
5
267
100
AcDbEntity
8
0
100
AcDbLine
10
-67.579859235990142
20
-30.581316941777807
30
0
11
-67.579859235990142
21
-30.834138387242895
31
0
0
SPLINE
5
268
100
AcDbEntity
8
0
100
AcDbSpline
70
0
71
2
72
6
73
3
74
0
42
0.000000001
43
0.0000000001
44
0.0000000001
40
0
40
0
40
0
40
1
40
1
40
1
10
-67.579859235990142
20
-30.834138387242895
30
0
10
-67.579859235990142
20
-30.99064707140122
30
0
10
-67.691221276033019
20
-31.103513234655004
30
0
0
SPLINE
5
269
100
AcDbEntity
8
0
100
AcDbSpline
70
0
71
2
72
6
73
3
74
0
42
0.000000001
43
0.0000000001
44
0.0000000001
40
0
40
0
40
0
40
1
40
1
40
1
10
-67.691221276033019
20
-31.103513234655004
30
0
10
-67.802583018052673
20
-31.216380590001684
30
0
10
-67.959091702210998
20
-31.216380590001684
30
0
0
LINE
5
270
100
AcDbEntity
8
0
100
AcDbLine
10
-67.959091702210998
20
-31.216380590001684
30
0
11
-68.779257276761626
21
-31.216380590001684
31
0
0
LINE
5
271
100
AcDbEntity
8
0
100
AcDbLine
10
-68.779257276761626
20
-31.216380590001684
30
0
11
-68.779257276761626
21
-31.345801347295385
31
0
0
SPLINE
5
272
100
AcDbEntity
8
0
100
AcDbSpline
70
0
71
2
72
6
73
3
74
0
42
0.000000001
43
0.0000000001
44
0.0000000001
40
0
40
0
40
0
40
1
40
1
40
1
10
-68.779257276761626
20
-31.345801347295385
30
0
10
-68.779257276761626
20
-31.398472779790502
30
0
10
-68.815374711263274
20
-31.435341828862768
30
0
0
SPLINE
5
273
100
AcDbEntity
8
0
100
AcDbSpline
70
0
71
2
72
6
73
3
74
0
42
0.000000001
43
0.0000000001
44
0.0000000001
40
0
40
0
40
0
40
1
40
1
40
1
10
-68.815374711263274
20
-31.435341828862768
30
0
10
-68.85149199675331
20
-31.472212070027929
30
0
10
-68.90566799949417
20
-31.472212070027929
30
0
0
SPLINE
5
274
100
AcDbEntity
8
0
100
AcDbSpline
70
0
71
2
72
6
73
3
74
0
42
0.000000001
43
0.0000000001
44
0.0000000001
40
0
40
0
40
0
40
1
40
1
40
1
10
-68.90566799949417
20
-31.472212070027929
30
0
10
-68.958339282977676
20
-31.472212070027929
30
0
10
-68.995209077108001
20
-31.435341828862768
30
0
0
SPLINE
5
275
100
AcDbEntity
8
0
100
AcDbSpline
70
0
71
2
72
6
73
3
74
0
42
0.000000001
43
0.0000000001
44
0.0000000001
40
0
40
0
40
0
40
1
40
1
40
1
10
-68.995209077108001
20
-31.435341828862768
30
0
10
-69.032078871238326
20
-31.398472779790502
30
0
10
-69.032078871238326
20
-31.345801347295385
30
0
0
LINE
5
276
100
AcDbEntity
8
0
100
AcDbLine
10
-69.032078871238326
20
-31.345801347295385
30
0
11
-69.032078871238326
21
-31.213370555440527
31
0
0
LINE
5
277
100
AcDbEntity
8
0
100
AcDbLine
10
-69.032078871238326
20
-31.213370555440527
30
0
11
-69.342086354005431
21
-31.213370555440527
31
0
0
SPLINE
5
278
100
AcDbEntity
8
0
100
AcDbSpline
70
0
71
2
72
6
73
3
74
0
42
0.000000001
43
0.0000000001
44
0.0000000001
40
0
40
0
40
0
40
1
40
1
40
1
10
-69.342086354005431
20
-31.213370555440527
30
0
10
-69.394757637488937
20
-31.213370555440527
30
0
10
-69.431627431619262
20
-31.176500314275366
30
0
0
SPLINE
5
279
100
AcDbEntity
8
0
100
AcDbSpline
70
0
71
2
72
6
73
3
74
0
42
0.000000001
43
0.0000000001
44
0.0000000001
40
0
40
0
40
0
40
1
40
1
40
1
10
-69.431627431619262
20
-31.176500314275366
30
0
10
-69.468497225749587
20
-31.1396312652031
30
0
10
-69.468497225749587
20
-31.086959832707983
30
0
0
SPLINE
5
280
100
AcDbEntity
8
0
100
AcDbSpline
70
0
71
2
72
6
73
3
74
0
42
0.000000001
43
0.0000000001
44
0.0000000001
40
0
40
0
40
0
40
1
40
1
40
1
10
-69.468497225749587
20
-31.086959832707983
30
0
10
-69.468497225749587
20
-31.037298434774023
30
0
10
-69.430874922978973
20
-30.998923772374731
30
0
0
SPLINE
5
281
100
AcDbEntity
8
0
100
AcDbSpline
70
0
71
2
72
6
73
3
74
0
42
0.000000001
43
0.0000000001
44
0.0000000001
40
0
40
0
40
0
40
1
40
1
40
1
10
-69.430874922978973
20
-30.998923772374731
30
0
10
-69.393252620208358
20
-30.960549109975439
30
0
10
-69.342086354005431
20
-30.960549109975439
30
0
0
LINE
5
282
100
AcDbEntity
8
0
100
AcDbLine
10
-69.342086354005431
20
-30.960549109975439
30
0
11
-69.032078871238326
21
-30.960549109975439
31
0
0
LINE
5
283
100
AcDbEntity
8
0
100
AcDbLine
10
-69.032078871238326
20
-30.960549109975439
30
0
11
-69.032078871238326
21
-30.451896184484106
31
0
0
SPLINE
5
284
100
AcDbEntity
8
0
100
AcDbSpline
70
0
71
2
72
6
73
3
74
0
42
0.000000001
43
0.0000000001
44
0.0000000001
40
0
40
0
40
0
40
1
40
1
40
1
10
-69.032078871238326
20
-30.451896184484106
30
0
10
-69.032078871238326
20
-30.40072917322312
30
0
10
-68.994456568467712
20
-30.363107913533788
30
0
0
SPLINE
5
285
100
AcDbEntity
8
0
100
AcDbSpline
70
0
71
2
72
6
73
3
74
0
42
0.000000001
43
0.0000000001
44
0.0000000001
40
0
40
0
40
0
40
1
40
1
40
1
10
-68.994456568467712
20
-30.363107913533788
30
0
10
-68.956834414708709
20
-30.325485461751562
30
0
10
-68.90566799949417
20
-30.325485461751562
30
0
0
SPLINE
5
286
100
AcDbEntity
8
0
100
AcDbSpline
70
0
71
2
72
6
73
3
74
0
42
0.000000001
43
0.0000000001
44
0.0000000001
40
0
40
0
40
0
40
1
40
1
40
1
10
-68.90566799949417
20
-30.325485461751562
30
0
10
-68.852996865022277
20
-30.325485461751562
30
0
10
-68.816127070891952
20
-30.363107913533788
30
0
0
SPLINE
5
287
100
AcDbEntity
8
0
100
AcDbSpline
70
0
71
2
72
6
73
3
74
0
42
0.000000001
43
0.0000000001
44
0.0000000001
40
0
40
0
40
0
40
1
40
1
40
1
10
-68.816127070891952
20
-30.363107913533788
30
0
10
-68.779257276761626
20
-30.40072917322312
30
0
10
-68.779257276761626
20
-30.451896184484106
30
0
0
LINE
5
288
100
AcDbEntity
8
0
100
AcDbLine
10
-68.779257276761626
20
-30.451896184484106
30
0
11
-68.779257276761626
21
-30.963559144536596
31
0
0
LINE
5
289
100
AcDbEntity
8
0
100
AcDbLine
10
-68.779257276761626
20
-30.963559144536596
30
0
11
-67.959091702210998
21
-30.963559144536596
31
0
0
SPLINE
5
290
100
AcDbEntity
8
0
100
AcDbSpline
70
0
71
2
72
6
73
3
74
0
42
0.000000001
43
0.0000000001
44
0.0000000001
40
0
40
0
40
0
40
1
40
1
40
1
10
-67.959091702210998
20
-30.963559144536596
30
0
10
-67.907925436008071
20
-30.963559144536596
30
0
10
-67.870303133237456
20
-30.925184482137304
30
0
0
SPLINE
5
291
100
AcDbEntity
8
0
100
AcDbSpline
70
0
71
2
72
6
73
3
74
0
42
0.000000001
43
0.0000000001
44
0.0000000001
40
0
40
0
40
0
40
1
40
1
40
1
10
-67.870303133237456
20
-30.925184482137304
30
0
10
-67.832680830466842
20
-30.886809819738012
30
0
10
-67.832680830466842
20
-30.834138387242895
30
0
0
LINE
5
292
100
AcDbEntity
8
0
100
AcDbLine
10
-67.832680830466842
20
-30.834138387242895
30
0
11
-67.832680830466842
21
-30.587335818807226
31
0
0
SPLINE
5
293
100
AcDbEntity
8
0
100
AcDbSpline
70
0
71
2
72
6
73
3
74
0
42
0.000000001
43
0.0000000001
44
0.0000000001
40
0
40
0
40
0
40
1
40
1
40
1
10
-67.832680830466842
20
-30.587335818807226
30
0
10
-67.832680830466842
20
-30.486508601705175
30
0
10
-67.941785493600463
20
-30.453400605718237
30
0
0
SPLINE
5
294
100
AcDbEntity
8
0
100
AcDbSpline
70
0
71
2
72
6
73
3
74
0
42
0.000000001
43
0.0000000001
44
0.0000000001
40
0
40
0
40
0
40
1
40
1
40
1
10
-67.941785493600463
20
-30.453400605718237
30
0
10
-68.050890007722472
20
-30.420293801824194
30
0
10
-68.050890007722472
20
-30.325485461751562
30
0
0
SPLINE
5
295
100
AcDbEntity
8
0
100
AcDbSpline
70
0
71
2
72
6
73
3
74
0
42
0.000000001
43
0.0000000001
44
0.0000000001
40
0
40
0
40
0
40
1
40
1
40
1
10
-68.050890007722472
20
-30.325485461751562
30
0
10
-68.050890007722472
20
-30.269803994695287
30
0
10
-68.014020213592147
20
-30.234439366857153
30
0
0
SPLINE
5
296
100
AcDbEntity
8
0
100
AcDbSpline
70
0
71
2
72
6
73
3
74
0
42
0.000000001
43
0.0000000001
44
0.0000000001
40
0
40
0
40
0
40
1
40
1
40
1
10
-68.014020213592147
20
-30.234439366857153
30
0
10
-67.977150419461822
20
-30.199074739019018
30
0
10
-67.921469399440383
20
-30.199074739019018
30
0
0
SPLINE
5
297
100
AcDbEntity
8
0
100
AcDbSpline
70
0
71
2
72
6
73
3
74
0
42
0.000000001
43
0.0000000001
44
0.0000000001
40
0
40
0
40
0
40
1
40
1
40
1
10
-67.921469399440383
20
-30.199074739019018
30
0
10
-67.807097771871184
20
-30.199074739019018
30
0
10
-67.693478503930663
20
-30.306674235860449
30
0
0
SPLINE
5
298
100
AcDbEntity
8
0
100
AcDbSpline
70
0
71
2
72
6
73
3
74
0
42
0.000000001
43
0.0000000001
44
0.0000000001
40
0
40
0
40
0
40
1
40
1
40
1
10
-67.693478503930663
20
-30.306674235860449
30
0
10
-67.579859235990142
20
-30.414273732701879
30
0
10
-67.579859235990142
20
-30.581316941777807
30
0
0
LINE
5
299
100
AcDbEntity
8
0
100
AcDbLine
10
-67.706269958722686
20
-29.610661262075048
30
0
11
-69.453448245036697
21
-29.610661262075048
31
0
0
SPLINE
5
300
100
AcDbEntity
8
0
100
AcDbSpline
70
0
71
2
72
6
73
3
74
0
42
0.000000001
43
0.0000000001
44
0.0000000001
40
0
40
0
40
0
40
1
40
1
40
1
10
-69.453448245036697
20
-29.610661262075048
30
0
10
-69.504614660251235
20
-29.610661262075048
30
0
10
-69.540731945741271
20
-29.573791020909887
30
0
0
SPLINE
5
301
100
AcDbEntity
8
0
100
AcDbSpline
70
0
71
2
72
6
73
3
74
0
42
0.000000001
43
0.0000000001
44
0.0000000001
40
0
40
0
40
0
40
1
40
1
40
1
10
-69.540731945741271
20
-29.573791020909887
30
0
10
-69.576849380242919
20
-29.536921971837621
30
0
10
-69.576849380242919
20
-29.484250539342504
30
0
0
SPLINE
5
302
100
AcDbEntity
8
0
100
AcDbSpline
70
0
71
2
72
6
73
3
74
0
42
0.000000001
43
0.0000000001
44
0.0000000001
40
0
40
0
40
0
40
1
40
1
40
1
10
-69.576849380242919
20
-29.484250539342504
30
0
10
-69.576849380242919
20
-29.431579106847387
30
0
10
-69.539979586112594
20
-29.394708865682226
30
0
0
SPLINE
5
303
100
AcDbEntity
8
0
100
AcDbSpline
70
0
71
2
72
6
73
3
74
0
42
0.000000001
43
0.0000000001
44
0.0000000001
40
0
40
0
40
0
40
1
40
1
40
1
10
-69.539979586112594
20
-29.394708865682226
30
0
10
-69.503109642970657
20
-29.35783981660996
30
0
10
-69.450438508498763
20
-29.35783981660996
30
0
0
LINE
5
304
100
AcDbEntity
8
0
100
AcDbLine
10
-69.450438508498763
20
-29.35783981660996
30
0
11
-68.812364825713729
21
-29.35783981660996
31
0
0
LINE
5
305
100
AcDbEntity
8
0
100
AcDbLine
10
-68.812364825713729
20
-29.35783981660996
30
0
11
-68.944795170533752
21
-29.154679769078832
31
0
0
SPLINE
5
306
100
AcDbEntity
8
0
100
AcDbSpline
70
0
71
2
72
6
73
3
74
0
42
0.000000001
43
0.0000000001
44
0.0000000001
40
0
40
0
40
0
40
1
40
1
40
1
10
-68.944795170533752
20
-29.154679769078832
30
0
10
-69.032078871238326
20
-29.01622890810166
30
0
10
-69.032078871238326
20
-28.907877200643163
30
0
0
LINE
5
307
100
AcDbEntity
8
0
100
AcDbLine
10
-69.032078871238326
20
-28.907877200643163
30
0
11
-69.032078871238326
21
-28.751368516484838
31
0
0
SPLINE
5
308
100
AcDbEntity
8
0
100
AcDbSpline
70
0
71
2
72
6
73
3
74
0
42
0.000000001
43
0.0000000001
44
0.0000000001
40
0
40
0
40
0
40
1
40
1
40
1
10
-69.032078871238326
20
-28.751368516484838
30
0
10
-69.032078871238326
20
-28.596365445653539
30
0
10
-68.921469339835738
20
-28.485002511540991
30
0
0
SPLINE
5
309
100
AcDbEntity
8
0
100
AcDbSpline
70
0
71
2
72
6
73
3
74
0
42
0.000000001
43
0.0000000001
44
0.0000000001
40
0
40
0
40
0
40
1
40
1
40
1
10
-68.921469339835738
20
-28.485002511540991
30
0
10
-68.810859957444762
20
-28.373640769521337
30
0
10
-68.65284640501747
20
-28.369126313726049
30
0
0
LINE
5
310
100
AcDbEntity
8
0
100
AcDbLine
10
-68.65284640501747
20
-28.369126313726049
30
0
11
-67.706269958722686
21
-28.337523931066137
31
0
0
SPLINE
5
311
100
AcDbEntity
8
0
100
AcDbSpline
70
0
71
2
72
6
73
3
74
0
42
0.000000001
43
0.0000000001
44
0.0000000001
40
0
40
0
40
0
40
1
40
1
40
1
10
-67.706269958722686
20
-28.337523931066137
30
0
10
-67.653598824250793
20
-28.336018317739111
30
0
10
-67.616729179132079
20
-28.373640769521337
30
0
0
SPLINE
5
312
100
AcDbEntity
8
0
100
AcDbSpline
70
0
71
2
72
6
73
3
74
0
42
0.000000001
43
0.0000000001
44
0.0000000001
40
0
40
0
40
0
40
1
40
1
40
1
10
-67.616729179132079
20
-28.373640769521337
30
0
10
-67.579859235990142
20
-28.411263221303564
30
0
10
-67.579859235990142
20
-28.463934653798681
30
0
0
SPLINE
5
313
100
AcDbEntity
8
0
100
AcDbSpline
70
0
71
2
72
6
73
3
74
0
42
0.000000001
43
0.0000000001
44
0.0000000001
40
0
40
0
40
0
40
1
40
1
40
1
10
-67.579859235990142
20
-28.463934653798681
30
0
10
-67.579859235990142
20
-28.516606086293798
30
0
10
-67.618233898389434
20
-28.552722924748998
30
0
0
SPLINE
5
314
100
AcDbEntity
8
0
100
AcDbSpline
70
0
71
2
72
6
73
3
74
0
42
0.000000001
43
0.0000000001
44
0.0000000001
40
0
40
0
40
0
40
1
40
1
40
1
10
-67.618233898389434
20
-28.552722924748998
30
0
10
-67.656608560788726
20
-28.588840955297094
30
0
10
-67.706269958722686
20
-28.590345376531225
30
0
0
LINE
5
315
100
AcDbEntity
8
0
100
AcDbLine
10
-67.706269958722686
20
-28.590345376531225
30
0
11
-68.655856141555404
21
-28.621947759191137
31
0
0
SPLINE
5
316
100
AcDbEntity
8
0
100
AcDbSpline
70
0
71
2
72
6
73
3
74
0
42
0.000000001
43
0.0000000001
44
0.0000000001
40
0
40
0
40
0
40
1
40
1
40
1
10
-68.655856141555404
20
-28.621947759191137
30
0
10
-68.70702240775833
20
-28.623453372518163
30
0
10
-68.744644710528945
20
-28.661074632207495
30
0
0
SPLINE
5
317
100
AcDbEntity
8
0
100
AcDbSpline
70
0
71
2
72
6
73
3
74
0
42
0.000000001
43
0.0000000001
44
0.0000000001
40
0
40
0
40
0
40
1
40
1
40
1
10
-68.744644710528945
20
-28.661074632207495
30
0
10
-68.78226701329956
20
-28.698697083989721
30
0
10
-68.78226701329956
20
-28.751368516484838
30
0
0
LINE
5
318
100
AcDbEntity
8
0
100
AcDbLine
10
-68.78226701329956
20
-28.751368516484838
30
0
11
-68.78226701329956
21
-28.892828219930273
31
0
0
SPLINE
5
319
100
AcDbEntity
8
0
100
AcDbSpline
70
0
71
2
72
6
73
3
74
0
42
0.000000001
43
0.0000000001
44
0.0000000001
40
0
40
0
40
0
40
1
40
1
40
1
10
-68.78226701329956
20
-28.892828219930273
30
0
10
-68.78226701329956
20
-28.940985196630102
30
0
10
-68.744644710528945
20
-28.998171084920507
30
0
0
LINE
5
320
100
AcDbEntity
8
0
100
AcDbLine
10
-68.744644710528945
20
-28.998171084920507
30
0
11
-68.509881833303069
21
-29.35783981660996
31
0
0
LINE
5
321
100
AcDbEntity
8
0
100
AcDbLine
10
-68.509881833303069
20
-29.35783981660996
30
0
11
-67.706269958722686
21
-29.35783981660996
31
0
0
SPLINE
5
322
100
AcDbEntity
8
0
100
AcDbSpline
70
0
71
2
72
6
73
3
74
0
42
0.000000001
43
0.0000000001
44
0.0000000001
40
0
40
0
40
0
40
1
40
1
40
1
10
-67.706269958722686
20
-29.35783981660996
30
0
10
-67.653598824250793
20
-29.35783981660996
30
0
10
-67.616729179132079
20
-29.394708865682226
30
0
0
SPLINE
5
323
100
AcDbEntity
8
0
100
AcDbSpline
70
0
71
2
72
6
73
3
74
0
42
0.000000001
43
0.0000000001
44
0.0000000001
40
0
40
0
40
0
40
1
40
1
40
1
10
-67.616729179132079
20
-29.394708865682226
30
0
10
-67.579859235990142
20
-29.431579106847387
30
0
10
-67.579859235990142
20
-29.484250539342504
30
0
0
SPLINE
5
324
100
AcDbEntity
8
0
100
AcDbSpline
70
0
71
2
72
6
73
3
74
0
42
0.000000001
43
0.0000000001
44
0.0000000001
40
0
40
0
40
0
40
1
40
1
40
1
10
-67.579859235990142
20
-29.484250539342504
30
0
10
-67.579859235990142
20
-29.536921971837621
30
0
10
-67.616729179132079
20
-29.573791020909887
30
0
0
SPLINE
5
325
100
AcDbEntity
8
0
100
AcDbSpline
70
0
71
2
72
6
73
3
74
0
42
0.000000001
43
0.0000000001
44
0.0000000001
40
0
40
0
40
0
40
1
40
1
40
1
10
-67.616729179132079
20
-29.573791020909887
30
0
10
-67.653598824250793
20
-29.610661262075048
30
0
10
-67.706269958722686
20
-29.610661262075048
30
0
0
LINE
5
326
100
AcDbEntity
8
0
100
AcDbLine
10
-68.556533345687484
20
-26.472964280644995
30
0
11
-68.251040616738891
21
-26.472964280644995
31
0
0
SPLINE
5
327
100
AcDbEntity
8
0
100
AcDbSpline
70
0
71
2
72
6
73
3
74
0
42
0.000000001
43
0.0000000001
44
0.0000000001
40
0
40
0
40
0
40
1
40
1
40
1
10
-68.251040616738891
20
-26.472964280644995
30
0
10
-68.199874201524352
20
-26.472964280644995
30
0
10
-68.16225204776535
20
-26.510586732427221
30
0
0
SPLINE
5
328
100
AcDbEntity
8
0
100
AcDbSpline
70
0
71
2
72
6
73
3
74
0
42
0.000000001
43
0.0000000001
44
0.0000000001
40
0
40
0
40
0
40
1
40
1
40
1
10
-68.16225204776535
20
-26.510586732427221
30
0
10
-68.124629744994735
20
-26.548209184209448
30
0
10
-68.124629744994735
20
-26.599375003377538
30
0
0
LINE
5
329
100
AcDbEntity
8
0
100
AcDbLine
10
-68.124629744994735
20
-26.599375003377538
30
0
11
-68.124629744994735
21
-27.493280166188818
31
0
0
LINE
5
330
100
AcDbEntity
8
0
100
AcDbLine
10
-68.124629744994735
20
-27.493280166188818
30
0
11
-68.050890007722472
21
-27.493280166188818
31
0
0
SPLINE
5
331
100
AcDbEntity
8
0
100
AcDbSpline
70
0
71
2
72
6
73
3
74
0
42
0.000000001
43
0.0000000001
44
0.0000000001
40
0
40
0
40
0
40
1
40
1
40
1
10
-68.050890007722472
20
-27.493280166188818
30
0
10
-67.986179778087234
20
-27.493280166188818
30
0
10
-67.941032984960174
20
-27.437598699132543
30
0
0
LINE
5
332
100
AcDbEntity
8
0
100
AcDbLine
10
-67.941032984960174
20
-27.437598699132543
30
0
11
-67.879332491862868
21
-27.363859408895117
31
0
0
SPLINE
5
333
100
AcDbEntity
8
0
100
AcDbSpline
70
0
71
2
72
6
73
3
74
0
42
0.000000001
43
0.0000000001
44
0.0000000001
40
0
40
0
40
0
40
1
40
1
40
1
10
-67.879332491862868
20
-27.363859408895117
30
0
10
-67.832680830466842
20
-27.303663486043554
30
0
10
-67.832680830466842
20
-27.249487632314306
30
0
0
LINE
5
334
100
AcDbEntity
8
0
100
AcDbLine
10
-67.832680830466842
20
-27.249487632314306
30
0
11
-67.832680830466842
21
-26.599375003377538
31
0
0
SPLINE
5
335
100
AcDbEntity
8
0
100
AcDbSpline
70
0
71
2
72
6
73
3
74
0
42
0.000000001
43
0.0000000001
44
0.0000000001
40
0
40
0
40
0
40
1
40
1
40
1
10
-67.832680830466842
20
-26.599375003377538
30
0
10
-67.832680830466842
20
-26.548209184209448
30
0
10
-67.795811036336517
20
-26.510586732427221
30
0
0
SPLINE
5
336
100
AcDbEntity
8
0
100
AcDbSpline
70
0
71
2
72
6
73
3
74
0
42
0.000000001
43
0.0000000001
44
0.0000000001
40
0
40
0
40
0
40
1
40
1
40
1
10
-67.795811036336517
20
-26.510586732427221
30
0
10
-67.758941242206191
20
-26.472964280644995
30
0
10
-67.706269958722686
20
-26.472964280644995
30
0
0
SPLINE
5
337
100
AcDbEntity
8
0
100
AcDbSpline
70
0
71
2
72
6
73
3
74
0
42
0.000000001
43
0.0000000001
44
0.0000000001
40
0
40
0
40
0
40
1
40
1
40
1
10
-67.706269958722686
20
-26.472964280644995
30
0
10
-67.655103841531371
20
-26.472964280644995
30
0
10
-67.617481389749145
20
-26.511338943044287
30
0
0
SPLINE
5
338
100
AcDbEntity
8
0
100
AcDbSpline
70
0
71
2
72
6
73
3
74
0
42
0.000000001
43
0.0000000001
44
0.0000000001
40
0
40
0
40
0
40
1
40
1
40
1
10
-67.617481389749145
20
-26.511338943044287
30
0
10
-67.579859235990142
20
-26.549713605443579
30
0
10
-67.579859235990142
20
-26.599375003377538
30
0
0
LINE
5
339
100
AcDbEntity
8
0
100
AcDbLine
10
-67.579859235990142
20
-26.599375003377538
30
0
11
-67.579859235990142
21
-27.266042226354223
31
0
0
SPLINE
5
340
100
AcDbEntity
8
0
100
AcDbSpline
70
0
71
2
72
6
73
3
74
0
42
0.000000001
43
0.0000000001
44
0.0000000001
40
0
40
0
40
0
40
1
40
1
40
1
10
-67.579859235990142
20
-27.266042226354223
30
0
10
-67.579859235990142
20
-27.332257026235204
30
0
10
-67.607699671495055
20
-27.405244105855566
30
0
0
SPLINE
5
341
100
AcDbEntity
8
0
100
AcDbSpline
70
0
71
2
72
6
73
3
74
0
42
0.000000001
43
0.0000000001
44
0.0000000001
40
0
40
0
40
0
40
1
40
1
40
1
10
-67.607699671495055
20
-27.405244105855566
30
0
10
-67.635540106999969
20
-27.478231185475927
30
0
10
-67.66563806842575
20
-27.512843602696996
30
0
0
LINE
5
342
100
AcDbEntity
8
0
100
AcDbLine
10
-67.66563806842575
20
-27.512843602696996
30
0
11
-67.76496086429367
21
-27.625710958043676
31
0
0
SPLINE
5
343
100
AcDbEntity
8
0
100
AcDbSpline
70
0
71
2
72
6
73
3
74
0
42
0.000000001
43
0.0000000001
44
0.0000000001
40
0
40
0
40
0
40
1
40
1
40
1
10
-67.76496086429367
20
-27.625710958043676
30
0
10
-67.807097771871184
20
-27.678381198445898
30
0
10
-67.882342228400802
20
-27.713747018376928
30
0
0
SPLINE
5
344
100
AcDbEntity
8
0
100
AcDbSpline
70
0
71
2
72
6
73
3
74
0
42
0.000000001
43
0.0000000001
44
0.0000000001
40
0
40
0
40
0
40
1
40
1
40
1
10
-67.882342228400802
20
-27.713747018376928
30
0
10
-67.957586833942031
20
-27.749111646215063
30
0
10
-68.020792195308303
20
-27.749111646215063
30
0
0
LINE
5
345
100
AcDbEntity
8
0
100
AcDbLine
10
-68.020792195308303
20
-27.749111646215063
30
0
11
-68.600175121533965
21
-27.749111646215063
31
0
0
SPLINE
5
346
100
AcDbEntity
8
0
100
AcDbSpline
70
0
71
2
72
6
73
3
74
0
42
0.000000001
43
0.0000000001
44
0.0000000001
40
0
40
0
40
0
40
1
40
1
40
1
10
-68.600175121533965
20
-27.749111646215063
30
0
10
-68.649836519467925
20
-27.749111646215063
30
0
10
-68.734110483634566
20
-27.710736983815771
30
0
0
SPLINE
5
347
100
AcDbEntity
8
0
100
AcDbSpline
70
0
71
2
72
6
73
3
74
0
42
0.000000001
43
0.0000000001
44
0.0000000001
40
0
40
0
40
0
40
1
40
1
40
1
10
-68.734110483634566
20
-27.710736983815771
30
0
10
-68.818384447801208
20
-27.672362321416479
30
0
10
-68.865035960185622
20
-27.613672011891943
30
0
0
LINE
5
348
100
AcDbEntity
8
0
100
AcDbLine
10
-68.865035960185622
20
-27.613672011891943
30
0
11
-68.947805056083297
21
-27.508329146901708
31
0
0
SPLINE
5
349
100
AcDbEntity
8
0
100
AcDbSpline
70
0
71
2
72
6
73
3
74
0
42
0.000000001
43
0.0000000001
44
0.0000000001
40
0
40
0
40
0
40
1
40
1
40
1
10
-68.947805056083297
20
-27.508329146901708
30
0
10
-69.032078871238326
20
-27.4044918952385
30
0
10
-69.032078871238326
20
-27.278081172505956
30
0
0
LINE
5
350
100
AcDbEntity
8
0
100
AcDbLine
10
-69.032078871238326
20
-27.278081172505956
30
0
11
-69.032078871238326
21
-26.922926896611791
31
0
0
SPLINE
5
351
100
AcDbEntity
8
0
100
AcDbSpline
70
0
71
2
72
6
73
3
74
0
42
0.000000001
43
0.0000000001
44
0.0000000001
40
0
40
0
40
0
40
1
40
1
40
1
10
-69.032078871238326
20
-26.922926896611791
30
0
10
-69.032078871238326
20
-26.788991683522802
30
0
10
-68.920716980207061
20
-26.670105451146704
30
0
0
LINE
5
352
100
AcDbEntity
8
0
100
AcDbLine
10
-68.920716980207061
20
-26.670105451146704
30
0
11
-68.830423542964553
21
-26.575297111074072
31
0
0
SPLINE
5
353
100
AcDbEntity
8
0
100
AcDbSpline
70
0
71
2
72
6
73
3
74
0
42
0.000000001
43
0.0000000001
44
0.0000000001
40
0
40
0
40
0
40
1
40
1
40
1
10
-68.830423542964553
20
-26.575297111074072
30
0
10
-68.738625088441466
20
-26.472964280644995
30
0
10
-68.556533345687484
20
-26.472964280644995
30
0
0
LINE
5
354
100
AcDbEntity
8
0
100
AcDbLine
10
-68.576096931207275
20
-27.490270131627661
30
0
11
-68.380461076009368
21
-27.490270131627661
31
0
0
LINE
5
355
100
AcDbEntity
8
0
100
AcDbLine
10
-68.380461076009368
20
-27.490270131627661
30
0
11
-68.380461076009368
21
-26.722775691548925
31
0
0
LINE
5
356
100
AcDbEntity
8
0
100
AcDbLine
10
-68.380461076009368
20
-26.722775691548925
30
0
11
-68.556533345687484
21
-26.722775691548925
31
0
0
SPLINE
5
357
100
AcDbEntity
8
0
100
AcDbSpline
70
0
71
2
72
6
73
3
74
0
42
0.000000001
43
0.0000000001
44
0.0000000001
40
0
40
0
40
0
40
1
40
1
40
1
10
-68.556533345687484
20
-26.722775691548925
30
0
10
-68.627263346421813
20
-26.722775691548925
30
0
10
-68.664885500180816
20
-26.766418212453466
30
0
0
LINE
5
358
100
AcDbEntity
8
0
100
AcDbLine
10
-68.664885500180816
20
-26.766418212453466
30
0
11
-68.729595878827666
21
-26.840157502690893
31
0
0
SPLINE
5
359
100
AcDbEntity
8
0
100
AcDbSpline
70
0
71
2
72
6
73
3
74
0
42
0.000000001
43
0.0000000001
44
0.0000000001
40
0
40
0
40
0
40
1
40
1
40
1
10
-68.729595878827666
20
-26.840157502690893
30
0
10
-68.776247540223693
20
-26.897343390981298
30
0
10
-68.776247540223693
20
-26.94249033311997
30
0
0
LINE
5
360
100
AcDbEntity
8
0
100
AcDbLine
10
-68.776247540223693
20
-26.94249033311997
30
0
11
-68.776247540223693
21
-27.260022157231909
31
0
0
SPLINE
5
361
100
AcDbEntity
8
0
100
AcDbSpline
70
0
71
2
72
6
73
3
74
0
42
0.000000001
43
0.0000000001
44
0.0000000001
40
0
40
0
40
0
40
1
40
1
40
1
10
-68.776247540223693
20
-27.260022157231909
30
0
10
-68.776247540223693
20
-27.318712466756445
30
0
10
-68.735615351903533
20
-27.366869443456274
30
0
0
LINE
5
362
100
AcDbEntity
8
0
100
AcDbLine
10
-68.735615351903533
20
-27.366869443456274
30
0
11
-68.673914858806228
21
-27.440608733693701
31
0
0
SPLINE
5
363
100
AcDbEntity
8
0
100
AcDbSpline
70
0
71
2
72
6
73
3
74
0
42
0.000000001
43
0.0000000001
44
0.0000000001
40
0
40
0
40
0
40
1
40
1
40
1
10
-68.673914858806228
20
-27.440608733693701
30
0
10
-68.636292556035613
20
-27.490270131627661
30
0
10
-68.576096931207275
20
-27.490270131627661
30
0
0
LINE
5
364
100
AcDbEntity
8
0
100
AcDbLine
10
-65.282972791898345
20
-38.152422600785833
30
0
11
-64.983076194036101
21
-38.152422600785833
31
0
0
LINE
5
365
100
AcDbEntity
8
0
100
AcDbLine
10
-64.983076194036101
20
-38.152422600785833
30
0
11
-64.690469244229888
21
-37.983874672452551
31
0
0
LINE
5
366
100
AcDbEntity
8
0
100
AcDbLine
10
-64.690469244229888
20
-37.983874672452551
30
0
11
-64.979313948857879
21
-37.896261805097204
31
0
0
LINE
5
367
100
AcDbEntity
8
0
100
AcDbLine
10
-64.979313948857879
20
-37.896261805097204
30
0
11
-65.716781357038116
21
-37.869503193894964
31
0
0
SPLINE
5
368
100
AcDbEntity
8
0
100
AcDbSpline
70
0
71
2
72
6
73
3
74
0
42
0.000000001
43
0.0000000001
44
0.0000000001
40
0
40
0
40
0
40
1
40
1
40
1
10
-65.716781357038116
20
-37.869503193894964
30
0
10
-65.767971018064117
20
-37.866493457357031
30
0
10
-65.805593171823119
20
-37.829623514215093
30
0
0
SPLINE
5
369
100
AcDbEntity
8
0
100
AcDbSpline
70
0
71
2
72
6
73
3
74
0
42
0.000000001
43
0.0000000001
44
0.0000000001
40
0
40
0
40
0
40
1
40
1
40
1
10
-65.805593171823119
20
-37.829623514215093
30
0
10
-65.843215325582122
20
-37.792753571073156
30
0
10
-65.843215325582122
20
-37.743092173139196
30
0
0
SPLINE
5
370
100
AcDbEntity
8
0
100
AcDbSpline
70
0
71
2
72
6
73
3
74
0
42
0.000000001
43
0.0000000001
44
0.0000000001
40
0
40
0
40
0
40
1
40
1
40
1
10
-65.843215325582122
20
-37.743092173139196
30
0
10
-65.843215325582122
20
-37.690421038667303
30
0
10
-65.806345680463409
20
-37.6527988849083
30
0
0
SPLINE
5
371
100
AcDbEntity
8
0
100
AcDbSpline
70
0
71
2
72
6
73
3
74
0
42
0.000000001
43
0.0000000001
44
0.0000000001
40
0
40
0
40
0
40
1
40
1
40
1
10
-65.806345680463409
20
-37.6527988849083
30
0
10
-65.769476035344695
20
-37.615176433126074
30
0
10
-65.716804602849578
20
-37.616681450406652
30
0
0
LINE
5
372
100
AcDbEntity
8
0
100
AcDbLine
10
-65.716804602849578
20
-37.616681450406652
30
0
11
-64.929746726262664
21
-37.643769377271276
31
0
0
LINE
5
373
100
AcDbEntity
8
0
100
AcDbLine
10
-64.929746726262664
20
-37.643769377271276
30
0
11
-64.482841232526397
21
-37.779350870648962
31
0
0
SPLINE
5
374
100
AcDbEntity
8
0
100
AcDbSpline
70
0
71
2
72
6
73
3
74
0
42
0.000000001
43
0.0000000001
44
0.0000000001
40
0
40
0
40
0
40
1
40
1
40
1
10
-64.482841232526397
20
-37.779350870648962
30
0
10
-64.39099583934555
20
-37.808014148274999
30
0
10
-64.39099583934555
20
-37.89703785757218
30
0
0
LINE
5
375
100
AcDbEntity
8
0
100
AcDbLine
10
-64.39099583934555
20
-37.89703785757218
30
0
11
-64.39099583934555
21
-38.032830947438818
31
0
0
SPLINE
5
376
100
AcDbEntity
8
0
100
AcDbSpline
70
0
71
2
72
6
73
3
74
0
42
0.000000001
43
0.0000000001
44
0.0000000001
40
0
40
0
40
0
40
1
40
1
40
1
10
-64.39099583934555
20
-38.032830947438818
30
0
10
-64.39099583934555
20
-38.103748851815801
30
0
10
-64.461067059743499
20
-38.144498461286169
30
0
0
LINE
5
377
100
AcDbEntity
8
0
100
AcDbLine
10
-64.461067059743499
20
-38.144498461286169
30
0
11
-64.699498155820464
21
-38.28184306005631
31
0
0
LINE
5
378
100
AcDbEntity
8
0
100
AcDbLine
10
-64.699498155820464
20
-38.28184306005631
30
0
11
-64.464359024274444
21
-38.419658237496954
31
0
0
SPLINE
5
379
100
AcDbEntity
8
0
100
AcDbSpline
70
0
71
2
72
6
73
3
74
0
42
0.000000001
43
0.0000000001
44
0.0000000001
40
0
40
0
40
0
40
1
40
1
40
1
10
-64.464359024274444
20
-38.419658237496954
30
0
10
-64.39099583934555
20
-38.466380530397039
30
0
10
-64.39099583934555
20
-38.531208330194097
30
0
0
LINE
5
380
100
AcDbEntity
8
0
100
AcDbLine
10
-64.39099583934555
20
-38.531208330194097
30
0
11
-64.39099583934555
21
-38.663873666326147
31
0
0
SPLINE
5
381
100
AcDbEntity
8
0
100
AcDbSpline
70
0
71
2
72
6
73
3
74
0
42
0.000000001
43
0.0000000001
44
0.0000000001
40
0
40
0
40
0
40
1
40
1
40
1
10
-64.39099583934555
20
-38.663873666326147
30
0
10
-64.39099583934555
20
-38.707586222688299
30
0
10
-64.416578748929595
20
-38.743009859124761
30
0
0
SPLINE
5
382
100
AcDbEntity
8
0
100
AcDbSpline
70
0
71
2
72
6
73
3
74
0
42
0.000000001
43
0.0000000001
44
0.0000000001
40
0
40
0
40
0
40
1
40
1
40
1
10
-64.416578748929595
20
-38.743009859124761
30
0
10
-64.442162254560088
20
-38.778433793584448
30
0
10
-64.476774671781158
20
-38.787486547032934
30
0
0
LINE
5
383
100
AcDbEntity
8
0
100
AcDbLine
10
-64.476774671781158
20
-38.787486547032934
30
0
11
-64.940281251180267
21
-38.919917040864568
31
0
0
LINE
5
384
100
AcDbEntity
8
0
100
AcDbLine
10
-64.940281251180267
20
-38.919917040864568
30
0
11
-65.716804602849578
21
-38.948509686986547
31
0
0
SPLINE
5
385
100
AcDbEntity
8
0
100
AcDbSpline
70
0
71
2
72
6
73
3
74
0
42
0.000000001
43
0.0000000001
44
0.0000000001
40
0
40
0
40
0
40
1
40
1
40
1
10
-65.716804602849578
20
-38.948509686986547
30
0
10
-65.766466000783538
20
-38.950014704267126
30
0
10
-65.80484066318283
20
-38.910887533227545
30
0
0
SPLINE
5
386
100
AcDbEntity
8
0
100
AcDbSpline
70
0
71
2
72
6
73
3
74
0
42
0.000000001
43
0.0000000001
44
0.0000000001
40
0
40
0
40
0
40
1
40
1
40
1
10
-65.80484066318283
20
-38.910887533227545
30
0
10
-65.843215325582122
20
-38.871760362187963
30
0
10
-65.843215325582122
20
-38.81908922771607
30
0
0
SPLINE
5
387
100
AcDbEntity
8
0
100
AcDbSpline
70
0
71
2
72
6
73
3
74
0
42
0.000000001
43
0.0000000001
44
0.0000000001
40
0
40
0
40
0
40
1
40
1
40
1
10
-65.843215325582122
20
-38.81908922771607
30
0
10
-65.843215325582122
20
-38.770932549039465
30
0
10
-65.807850697743987
20
-38.734062903920751
30
0
0
SPLINE
5
388
100
AcDbEntity
8
0
100
AcDbSpline
70
0
71
2
72
6
73
3
74
0
42
0.000000001
43
0.0000000001
44
0.0000000001
40
0
40
0
40
0
40
1
40
1
40
1
10
-65.807850697743987
20
-38.734062903920751
30
0
10
-65.772485473859405
20
-38.697192960778814
30
0
10
-65.716828146684264
20
-38.695688241521459
30
0
0
LINE
5
389
100
AcDbEntity
8
0
100
AcDbLine
10
-65.716828146684264
20
-38.695688241521459
30
0
11
-64.976492264974212
21
-38.666742437879186
31
0
0
LINE
5
390
100
AcDbEntity
8
0
100
AcDbLine
10
-64.976492264974212
20
-38.666742437879186
30
0
11
-64.693478682744598
21
-38.584326201478582
31
0
0
LINE
5
391
100
AcDbEntity
8
0
100
AcDbLine
10
-64.693478682744598
20
-38.584326201478582
30
0
11
-64.990906456220245
21
-38.408254080812078
31
0
0
LINE
5
392
100
AcDbEntity
8
0
100
AcDbLine
10
-64.990906456220245
20
-38.408254080812078
30
0
11
-65.282643774259185
21
-38.408254080812078
31
0
0
SPLINE
5
393
100
AcDbEntity
8
0
100
AcDbSpline
70
0
71
2
72
6
73
3
74
0
42
0.000000001
43
0.0000000001
44
0.0000000001
40
0
40
0
40
0
40
1
40
1
40
1
10
-65.282643774259185
20
-38.408254080812078
30
0
10
-65.334985593068694
20
-38.408254080812078
30
0
10
-65.371643939721679
20
-38.370631927053076
30
0
0
SPLINE
5
394
100
AcDbEntity
8
0
100
AcDbSpline
70
0
71
2
72
6
73
3
74
0
42
0.000000001
43
0.0000000001
44
0.0000000001
40
0
40
0
40
0
40
1
40
1
40
1
10
-65.371643939721679
20
-38.370631927053076
30
0
10
-65.40830198835144
20
-38.333009475270849
30
0
10
-65.40830198835144
20
-38.278833323518377
30
0
0
SPLINE
5
395
100
AcDbEntity
8
0
100
AcDbSpline
70
0
71
2
72
6
73
3
74
0
42
0.000000001
43
0.0000000001
44
0.0000000001
40
0
40
0
40
0
40
1
40
1
40
1
10
-65.40830198835144
20
-38.278833323518377
30
0
10
-65.40830198835144
20
-38.227667206327062
30
0
10
-65.371749737966155
20
-38.190044754544836
30
0
0
SPLINE
5
396
100
AcDbEntity
8
0
100
AcDbSpline
70
0
71
2
72
6
73
3
74
0
42
0.000000001
43
0.0000000001
44
0.0000000001
40
0
40
0
40
0
40
1
40
1
40
1
10
-65.371749737966155
20
-38.190044754544836
30
0
10
-65.335197189557647
20
-38.152422600785833
30
0
10
-65.282972791898345
20
-38.152422600785833
30
0
0
LINE
5
397
100
AcDbEntity
8
0
100
AcDbLine
10
-65.387233534562682
20
-35.780714744130712
30
0
11
-64.85299740146408
21
-35.780714744130712
31
0
0
SPLINE
5
398
100
AcDbEntity
8
0
100
AcDbSpline
70
0
71
2
72
6
73
3
74
0
42
0.000000001
43
0.0000000001
44
0.0000000001
40
0
40
0
40
0
40
1
40
1
40
1
10
-64.85299740146408
20
-35.780714744130712
30
0
10
-64.682944753873443
20
-35.780714744130712
30
0
10
-64.538475015866851
20
-35.94098567346726
30
0
0
SPLINE
5
399
100
AcDbEntity
8
0
100
AcDbSpline
70
0
71
2
72
6
73
3
74
0
42
0.000000001
43
0.0000000001
44
0.0000000001
40
0
40
0
40
0
40
1
40
1
40
1
10
-64.538475015866851
20
-35.94098567346726
30
0
10
-64.394005873906707
20
-36.101256602803808
30
0
10
-64.394005873906707
20
-36.271309250394445
30
0
0
LINE
5
400
100
AcDbEntity
8
0
100
AcDbLine
10
-64.394005873906707
20
-36.271309250394445
30
0
11
-64.394005873906707
21
-36.567772620717626
31
0
0
SPLINE
5
401
100
AcDbEntity
8
0
100
AcDbSpline
70
0
71
2
72
6
73
3
74
0
42
0.000000001
43
0.0000000001
44
0.0000000001
40
0
40
0
40
0
40
1
40
1
40
1
10
-64.394005873906707
20
-36.567772620717626
30
0
10
-64.394005873906707
20
-36.740834706822973
30
0
10
-64.540732243764495
20
-36.898848408261877
30
0
0
SPLINE
5
402
100
AcDbEntity
8
0
100
AcDbSpline
70
0
71
2
72
6
73
3
74
0
42
0.000000001
43
0.0000000001
44
0.0000000001
40
0
40
0
40
0
40
1
40
1
40
1
10
-64.540732243764495
20
-36.898848408261877
30
0
10
-64.687459209668731
20
-37.056862109700781
30
0
10
-64.85299740146408
20
-37.056862109700781
30
0
0
LINE
5
403
100
AcDbEntity
8
0
100
AcDbLine
10
-64.85299740146408
20
-37.056862109700781
30
0
11
-65.387233534562682
21
-37.056862109700781
31
0
0
SPLINE
5
404
100
AcDbEntity
8
0
100
AcDbSpline
70
0
71
2
72
6
73
3
74
0
42
0.000000001
43
0.0000000001
44
0.0000000001
40
0
40
0
40
0
40
1
40
1
40
1
10
-65.387233534562682
20
-37.056862109700781
30
0
10
-65.552771428334808
20
-37.056862109700781
30
0
10
-65.699498394239043
20
-36.902610653440099
30
0
0
SPLINE
5
405
100
AcDbEntity
8
0
100
AcDbSpline
70
0
71
2
72
6
73
3
74
0
42
0.000000001
43
0.0000000001
44
0.0000000001
40
0
40
0
40
0
40
1
40
1
40
1
10
-65.699498394239043
20
-36.902610653440099
30
0
10
-65.846225360143279
20
-36.748359197179418
30
0
10
-65.846225360143279
20
-36.567772620717626
30
0
0
LINE
5
406
100
AcDbEntity
8
0
100
AcDbLine
10
-65.846225360143279
20
-36.567772620717626
30
0
11
-65.846225360143279
21
-36.271309250394445
31
0
0
SPLINE
5
407
100
AcDbEntity
8
0
100
AcDbSpline
70
0
71
2
72
6
73
3
74
0
42
0.000000001
43
0.0000000001
44
0.0000000001
40
0
40
0
40
0
40
1
40
1
40
1
10
-65.846225360143279
20
-36.271309250394445
30
0
10
-65.849234798657989
20
-36.101256602803808
30
0
10
-65.704765656697845
20
-35.94098567346726
30
0
0
SPLINE
5
408
100
AcDbEntity
8
0
100
AcDbSpline
70
0
71
2
72
6
73
3
74
0
42
0.000000001
43
0.0000000001
44
0.0000000001
40
0
40
0
40
0
40
1
40
1
40
1
10
-65.704765656697845
20
-35.94098567346726
30
0
10
-65.560295918691253
20
-35.780714744130712
30
0
10
-65.387233534562682
20
-35.780714744130712
30
0
0
LINE
5
409
100
AcDbEntity
8
0
100
AcDbLine
10
-65.376699307668304
20
-36.801030629674536
30
0
11
-64.865036347615813
21
-36.801030629674536
31
0
0
SPLINE
5
410
100
AcDbEntity
8
0
100
AcDbSpline
70
0
71
2
72
6
73
3
74
0
42
0.000000001
43
0.0000000001
44
0.0000000001
40
0
40
0
40
0
40
1
40
1
40
1
10
-64.865036347615813
20
-36.801030629674536
30
0
10
-64.795811513173675
20
-36.801030629674536
30
0
10
-64.755179622876739
20
-36.751369231740576
30
0
0
LINE
5
411
100
AcDbEntity
8
0
100
AcDbLine
10
-64.755179622876739
20
-36.751369231740576
30
0
11
-64.673915246236419
21
-36.656560891667944
31
0
0
SPLINE
5
412
100
AcDbEntity
8
0
100
AcDbSpline
70
0
71
2
72
6
73
3
74
0
42
0.000000001
43
0.0000000001
44
0.0000000001
40
0
40
0
40
0
40
1
40
1
40
1
10
-64.673915246236419
20
-36.656560891667944
30
0
10
-64.646827319371795
20
-36.624958509008032
30
0
10
-64.646827319371795
20
-36.567772620717626
30
0
0
LINE
5
413
100
AcDbEntity
8
0
100
AcDbLine
10
-64.646827319371795
20
-36.567772620717626
30
0
11
-64.646827319371795
21
-36.274318688909155
31
0
0
SPLINE
5
414
100
AcDbEntity
8
0
100
AcDbSpline
70
0
71
2
72
6
73
3
74
0
42
0.000000001
43
0.0000000001
44
0.0000000001
40
0
40
0
40
0
40
1
40
1
40
1
10
-64.646827319371795
20
-36.274318688909155
30
0
10
-64.646827319371795
20
-36.209608310262304
30
0
10
-64.693478682744598
20
-36.156937473813635
30
0
0
LINE
5
415
100
AcDbEntity
8
0
100
AcDbLine
10
-64.693478682744598
20
-36.156937473813635
30
0
11
-64.761199095952605
21
-36.080188149015051
31
0
0
SPLINE
5
416
100
AcDbEntity
8
0
100
AcDbSpline
70
0
71
2
72
6
73
3
74
0
42
0.000000001
43
0.0000000001
44
0.0000000001
40
0
40
0
40
0
40
1
40
1
40
1
10
-64.761199095952605
20
-36.080188149015051
30
0
10
-64.797316530454253
20
-36.0335361895958
30
0
10
-64.862026909101104
20
-36.0335361895958
30
0
0
LINE
5
417
100
AcDbEntity
8
0
100
AcDbLine
10
-64.862026909101104
20
-36.0335361895958
30
0
11
-65.37368957113037
21
-36.0335361895958
31
0
0
SPLINE
5
418
100
AcDbEntity
8
0
100
AcDbSpline
70
0
71
2
72
6
73
3
74
0
42
0.000000001
43
0.0000000001
44
0.0000000001
40
0
40
0
40
0
40
1
40
1
40
1
10
-65.37368957113037
20
-36.0335361895958
30
0
10
-65.4489341766716
20
-36.0335361895958
30
0
10
-65.485051611173247
20
-36.080188149015051
30
0
0
LINE
5
419
100
AcDbEntity
8
0
100
AcDbLine
10
-65.485051611173247
20
-36.080188149015051
30
0
11
-65.555781462895965
21
-36.168976419965368
31
0
0
SPLINE
5
420
100
AcDbEntity
8
0
100
AcDbSpline
70
0
71
2
72
6
73
3
74
0
42
0.000000001
43
0.0000000001
44
0.0000000001
40
0
40
0
40
0
40
1
40
1
40
1
10
-65.555781462895965
20
-36.168976419965368
30
0
10
-65.593403616654967
20
-36.21412336210404
30
0
10
-65.593403616654967
20
-36.274318688909155
30
0
0
LINE
5
421
100
AcDbEntity
8
0
100
AcDbLine
10
-65.593403616654967
20
-36.274318688909155
30
0
11
-65.593403616654967
21
-36.536170238057714
31
0
0
SPLINE
5
422
100
AcDbEntity
8
0
100
AcDbSpline
70
0
71
2
72
6
73
3
74
0
42
0.000000001
43
0.0000000001
44
0.0000000001
40
0
40
0
40
0
40
1
40
1
40
1
10
-65.593403616654967
20
-36.536170238057714
30
0
10
-65.593403616654967
20
-36.621948474446874
30
0
10
-65.552771428334808
20
-36.668600433866125
30
0
0
LINE
5
423
100
AcDbEntity
8
0
100
AcDbLine
10
-65.552771428334808
20
-36.668600433866125
30
0
11
-65.479031840074157
21
-36.754379266301733
31
0
0
SPLINE
5
424
100
AcDbEntity
8
0
100
AcDbSpline
70
0
71
2
72
6
73
3
74
0
42
0.000000001
43
0.0000000001
44
0.0000000001
40
0
40
0
40
0
40
1
40
1
40
1
10
-65.479031840074157
20
-36.754379266301733
30
0
10
-65.439904669034576
20
-36.801030629674536
30
0
10
-65.376699307668304
20
-36.801030629674536
30
0
0
LINE
5
425
100
AcDbEntity
8
0
100
AcDbLine
10
-64.517406562078094
20
-35.192302459279638
30
0
11
-65.716804602849578
21
-35.192302459279638
31
0
0
SPLINE
5
426
100
AcDbEntity
8
0
100
AcDbSpline
70
0
71
2
72
6
73
3
74
0
42
0.000000001
43
0.0000000001
44
0.0000000001
40
0
40
0
40
0
40
1
40
1
40
1
10
-65.716804602849578
20
-35.192302459279638
30
0
10
-65.769476035344695
20
-35.192302459279638
30
0
10
-65.807850697743987
20
-35.155432218114477
30
0
0
SPLINE
5
427
100
AcDbEntity
8
0
100
AcDbSpline
70
0
71
2
72
6
73
3
74
0
42
0.000000001
43
0.0000000001
44
0.0000000001
40
0
40
0
40
0
40
1
40
1
40
1
10
-65.807850697743987
20
-35.155432218114477
30
0
10
-65.846225360143279
20
-35.118563169042211
30
0
10
-65.846225360143279
20
-35.065891736547094
30
0
0
SPLINE
5
428
100
AcDbEntity
8
0
100
AcDbSpline
70
0
71
2
72
6
73
3
74
0
42
0.000000001
43
0.0000000001
44
0.0000000001
40
0
40
0
40
0
40
1
40
1
40
1
10
-65.846225360143279
20
-35.065891736547094
30
0
10
-65.846225360143279
20
-35.013220304051977
30
0
10
-65.808602908361053
20
-34.976350658933264
30
0
0
SPLINE
5
429
100
AcDbEntity
8
0
100
AcDbSpline
70
0
71
2
72
6
73
3
74
0
42
0.000000001
43
0.0000000001
44
0.0000000001
40
0
40
0
40
0
40
1
40
1
40
1
10
-65.808602908361053
20
-34.976350658933264
30
0
10
-65.77098075460205
20
-34.93948101381455
30
0
10
-65.716804602849578
20
-34.93948101381455
30
0
0
LINE
5
430
100
AcDbEntity
8
0
100
AcDbLine
10
-65.716804602849578
20
-34.93948101381455
30
0
11
-65.558791199433898
21
-34.93948101381455
31
0
0
LINE
5
431
100
AcDbEntity
8
0
100
AcDbLine
10
-65.558791199433898
20
-34.93948101381455
30
0
11
-65.734863320100402
21
-34.733310931722265
31
0
0
SPLINE
5
432
100
AcDbEntity
8
0
100
AcDbSpline
70
0
71
2
72
6
73
3
74
0
42
0.000000001
43
0.0000000001
44
0.0000000001
40
0
40
0
40
0
40
1
40
1
40
1
10
-65.734863320100402
20
-34.733310931722265
30
0
10
-65.843215325582122
20
-34.605395191709142
30
0
10
-65.843215325582122
20
-34.483498924771887
30
0
0
LINE
5
433
100
AcDbEntity
8
0
100
AcDbLine
10
-65.843215325582122
20
-34.483498924771887
30
0
11
-65.843215325582122
21
-34.298397296468359
31
0
0
SPLINE
5
434
100
AcDbEntity
8
0
100
AcDbSpline
70
0
71
2
72
6
73
3
74
0
42
0.000000001
43
0.0000000001
44
0.0000000001
40
0
40
0
40
0
40
1
40
1
40
1
10
-65.843215325582122
20
-34.298397296468359
30
0
10
-65.843215325582122
20
-34.141888612310034
30
0
10
-65.731853583562469
20
-34.03052687029038
30
0
0
SPLINE
5
435
100
AcDbEntity
8
0
100
AcDbSpline
70
0
71
2
72
6
73
3
74
0
42
0.000000001
43
0.0000000001
44
0.0000000001
40
0
40
0
40
0
40
1
40
1
40
1
10
-65.731853583562469
20
-34.03052687029038
30
0
10
-65.620491543519591
20
-33.919165128270727
30
0
10
-65.46398315738449
20
-33.919165128270727
30
0
0
LINE
5
436
100
AcDbEntity
8
0
100
AcDbLine
10
-65.46398315738449
20
-33.919165128270727
30
0
11
-65.396262744176482
21
-33.919165128270727
31
0
0
SPLINE
5
437
100
AcDbEntity
8
0
100
AcDbSpline
70
0
71
2
72
6
73
3
74
0
42
0.000000001
43
0.0000000001
44
0.0000000001
40
0
40
0
40
0
40
1
40
1
40
1
10
-65.396262744176482
20
-33.919165128270727
30
0
10
-65.342086890447234
20
-33.919165128270727
30
0
10
-65.304464438665008
20
-33.95603477338944
30
0
0
SPLINE
5
438
100
AcDbEntity
8
0
100
AcDbSpline
70
0
71
2
72
6
73
3
74
0
42
0.000000001
43
0.0000000001
44
0.0000000001
40
0
40
0
40
0
40
1
40
1
40
1
10
-65.304464438665008
20
-33.95603477338944
30
0
10
-65.266842284906005
20
-33.992904418508154
30
0
10
-65.266842284906005
20
-34.045575851003271
30
0
0
SPLINE
5
439
100
AcDbEntity
8
0
100
AcDbSpline
70
0
71
2
72
6
73
3
74
0
42
0.000000001
43
0.0000000001
44
0.0000000001
40
0
40
0
40
0
40
1
40
1
40
1
10
-65.266842284906005
20
-34.045575851003271
30
0
10
-65.266842284906005
20
-34.09824668745194
30
0
10
-65.303712228047942
20
-34.135116332570654
30
0
0
SPLINE
5
440
100
AcDbEntity
8
0
100
AcDbSpline
70
0
71
2
72
6
73
3
74
0
42
0.000000001
43
0.0000000001
44
0.0000000001
40
0
40
0
40
0
40
1
40
1
40
1
10
-65.303712228047942
20
-34.135116332570654
30
0
10
-65.340581873166656
20
-34.171986573735815
30
0
10
-65.393253305661773
20
-34.171986573735815
30
0
0
LINE
5
441
100
AcDbEntity
8
0
100
AcDbLine
10
-65.393253305661773
20
-34.171986573735815
30
0
11
-65.46398315738449
21
-34.171986573735815
31
0
0
SPLINE
5
442
100
AcDbEntity
8
0
100
AcDbSpline
70
0
71
2
72
6
73
3
74
0
42
0.000000001
43
0.0000000001
44
0.0000000001
40
0
40
0
40
0
40
1
40
1
40
1
10
-65.46398315738449
20
-34.171986573735815
30
0
10
-65.51665399383316
20
-34.171986573735815
30
0
10
-65.553523936975097
20
-34.208856218854528
30
0
0
SPLINE
5
443
100
AcDbEntity
8
0
100
AcDbSpline
70
0
71
2
72
6
73
3
74
0
42
0.000000001
43
0.0000000001
44
0.0000000001
40
0
40
0
40
0
40
1
40
1
40
1
10
-65.553523936975097
20
-34.208856218854528
30
0
10
-65.590393880117034
20
-34.245725863973242
30
0
10
-65.590393880117034
20
-34.298397296468359
30
0
0
LINE
5
444
100
AcDbEntity
8
0
100
AcDbLine
10
-65.590393880117034
20
-34.298397296468359
30
0
11
-65.590393880117034
21
-34.462430470983129
31
0
0
SPLINE
5
445
100
AcDbEntity
8
0
100
AcDbSpline
70
0
71
2
72
6
73
3
74
0
42
0.000000001
43
0.0000000001
44
0.0000000001
40
0
40
0
40
0
40
1
40
1
40
1
10
-65.590393880117034
20
-34.462430470983129
30
0
10
-65.590393880117034
20
-34.515101903478246
30
0
10
-65.534713009107207
20
-34.579812282125097
30
0
0
LINE
5
446
100
AcDbEntity
8
0
100
AcDbLine
10
-65.534713009107207
20
-34.579812282125097
30
0
11
-65.223200658071136
21
-34.93948101381455
31
0
0
LINE
5
447
100
AcDbEntity
8
0
100
AcDbLine
10
-65.223200658071136
20
-34.93948101381455
30
0
11
-64.517406562078094
21
-34.93948101381455
31
0
0
SPLINE
5
448
100
AcDbEntity
8
0
100
AcDbSpline
70
0
71
2
72
6
73
3
74
0
42
0.000000001
43
0.0000000001
44
0.0000000001
40
0
40
0
40
0
40
1
40
1
40
1
10
-64.517406562078094
20
-34.93948101381455
30
0
10
-64.464735725629424
20
-34.93948101381455
30
0
10
-64.427865484464263
20
-34.977103465596777
30
0
0
SPLINE
5
449
100
AcDbEntity
8
0
100
AcDbSpline
70
0
71
2
72
6
73
3
74
0
42
0.000000001
43
0.0000000001
44
0.0000000001
40
0
40
0
40
0
40
1
40
1
40
1
10
-64.427865484464263
20
-34.977103465596777
30
0
10
-64.39099583934555
20
-35.014725321332556
30
0
10
-64.39099583934555
20
-35.065891736547094
30
0
0
SPLINE
5
450
100
AcDbEntity
8
0
100
AcDbSpline
70
0
71
2
72
6
73
3
74
0
42
0.000000001
43
0.0000000001
44
0.0000000001
40
0
40
0
40
0
40
1
40
1
40
1
10
-64.39099583934555
20
-35.065891736547094
30
0
10
-64.39099583934555
20
-35.118563169042211
30
0
10
-64.427865484464263
20
-35.155432218114477
30
0
0
SPLINE
5
451
100
AcDbEntity
8
0
100
AcDbSpline
70
0
71
2
72
6
73
3
74
0
42
0.000000001
43
0.0000000001
44
0.0000000001
40
0
40
0
40
0
40
1
40
1
40
1
10
-64.427865484464263
20
-35.155432218114477
30
0
10
-64.464735725629424
20
-35.192302459279638
30
0
10
-64.517406562078094
20
-35.192302459279638
30
0
0
LINE
5
452
100
AcDbEntity
8
0
100
AcDbLine
10
-64.39099583934555
20
-32.310435765782934
30
0
11
-64.39099583934555
21
-33.07492076734696
31
0
0
SPLINE
5
453
100
AcDbEntity
8
0
100
AcDbSpline
70
0
71
2
72
6
73
3
74
0
42
0.000000001
43
0.0000000001
44
0.0000000001
40
0
40
0
40
0
40
1
40
1
40
1
10
-64.39099583934555
20
-33.07492076734696
30
0
10
-64.39099583934555
20
-33.127592199842077
30
0
10
-64.429370501744842
20
-33.16446184496079
30
0
0
SPLINE
5
454
100
AcDbEntity
8
0
100
AcDbSpline
70
0
71
2
72
6
73
3
74
0
42
0.000000001
43
0.0000000001
44
0.0000000001
40
0
40
0
40
0
40
1
40
1
40
1
10
-64.429370501744842
20
-33.16446184496079
30
0
10
-64.467745164144134
20
-33.201331490079504
30
0
10
-64.520416596639251
20
-33.201331490079504
30
0
0
SPLINE
5
455
100
AcDbEntity
8
0
100
AcDbSpline
70
0
71
2
72
6
73
3
74
0
42
0.000000001
43
0.0000000001
44
0.0000000001
40
0
40
0
40
0
40
1
40
1
40
1
10
-64.520416596639251
20
-33.201331490079504
30
0
10
-64.571583011853789
20
-33.201331490079504
30
0
10
-64.609204867589568
20
-33.16446184496079
30
0
0
SPLINE
5
456
100
AcDbEntity
8
0
100
AcDbSpline
70
0
71
2
72
6
73
3
74
0
42
0.000000001
43
0.0000000001
44
0.0000000001
40
0
40
0
40
0
40
1
40
1
40
1
10
-64.609204867589568
20
-33.16446184496079
30
0
10
-64.646827319371795
20
-33.127592199842077
30
0
10
-64.646827319371795
20
-33.07492076734696
30
0
0
LINE
5
457
100
AcDbEntity
8
0
100
AcDbLine
10
-64.646827319371795
20
-33.07492076734696
30
0
11
-64.646827319371795
21
-32.822099321881872
31
0
0
LINE
5
458
100
AcDbEntity
8
0
100
AcDbLine
10
-64.646827319371795
20
-32.822099321881872
30
0
11
-66.138174274671172
21
-32.822099321881872
31
0
0
LINE
5
459
100
AcDbEntity
8
0
100
AcDbLine
10
-66.138174274671172
20
-32.822099321881872
30
0
11
-66.138174274671172
21
-33.077930801908117
31
0
0
SPLINE
5
460
100
AcDbEntity
8
0
100
AcDbSpline
70
0
71
2
72
6
73
3
74
0
42
0.000000001
43
0.0000000001
44
0.0000000001
40
0
40
0
40
0
40
1
40
1
40
1
10
-66.138174274671172
20
-33.077930801908117
30
0
10
-66.138174274671172
20
-33.130601638356787
30
0
10
-66.175043919789886
20
-33.167471879521948
30
0
0
SPLINE
5
461
100
AcDbEntity
8
0
100
AcDbSpline
70
0
71
2
72
6
73
3
74
0
42
0.000000001
43
0.0000000001
44
0.0000000001
40
0
40
0
40
0
40
1
40
1
40
1
10
-66.175043919789886
20
-33.167471879521948
30
0
10
-66.211913564908599
20
-33.204341524640661
30
0
10
-66.264584997403716
20
-33.204341524640661
30
0
0
SPLINE
5
462
100
AcDbEntity
8
0
100
AcDbSpline
70
0
71
2
72
6
73
3
74
0
42
0.000000001
43
0.0000000001
44
0.0000000001
40
0
40
0
40
0
40
1
40
1
40
1
10
-66.264584997403716
20
-33.204341524640661
30
0
10
-66.31725613187561
20
-33.204341524640661
30
0
10
-66.354126075017547
20
-33.167471879521948
30
0
0
SPLINE
5
463
100
AcDbEntity
8
0
100
AcDbSpline
70
0
71
2
72
6
73
3
74
0
42
0.000000001
43
0.0000000001
44
0.0000000001
40
0
40
0
40
0
40
1
40
1
40
1
10
-66.354126075017547
20
-33.167471879521948
30
0
10
-66.39099572013626
20
-33.130601638356787
30
0
10
-66.39099572013626
20
-33.077930801908117
30
0
0
LINE
5
464
100
AcDbEntity
8
0
100
AcDbLine
10
-66.39099572013626
20
-33.077930801908117
30
0
11
-66.39099572013626
21
-32.692678564588171
31
0
0
SPLINE
5
465
100
AcDbEntity
8
0
100
AcDbSpline
70
0
71
2
72
6
73
3
74
0
42
0.000000001
43
0.0000000001
44
0.0000000001
40
0
40
0
40
0
40
1
40
1
40
1
10
-66.39099572013626
20
-32.692678564588171
30
0
10
-66.39099572013626
20
-32.641512149373632
30
0
10
-66.353373268354034
20
-32.603890293637853
30
0
0
SPLINE
5
466
100
AcDbEntity
8
0
100
AcDbSpline
70
0
71
2
72
6
73
3
74
0
42
0.000000001
43
0.0000000001
44
0.0000000001
40
0
40
0
40
0
40
1
40
1
40
1
10
-66.353373268354034
20
-32.603890293637853
30
0
10
-66.315751412618255
20
-32.566267841855627
30
0
10
-66.264584997403716
20
-32.566267841855627
30
0
0
LINE
5
467
100
AcDbEntity
8
0
100
AcDbLine
10
-66.264584997403716
20
-32.566267841855627
30
0
11
-64.646827319371795
21
-32.566267841855627
31
0
0
LINE
5
468
100
AcDbEntity
8
0
100
AcDbLine
10
-64.646827319371795
20
-32.566267841855627
30
0
11
-64.646827319371795
21
-32.310435765782934
31
0
0
SPLINE
5
469
100
AcDbEntity
8
0
100
AcDbSpline
70
0
71
2
72
6
73
3
74
0
42
0.000000001
43
0.0000000001
44
0.0000000001
40
0
40
0
40
0
40
1
40
1
40
1
10
-64.646827319371795
20
-32.310435765782934
30
0
10
-64.646827319371795
20
-32.259269946614843
30
0
10
-64.609204867589568
20
-32.221647494832617
30
0
0
SPLINE
5
470
100
AcDbEntity
8
0
100
AcDbSpline
70
0
71
2
72
6
73
3
74
0
42
0.000000001
43
0.0000000001
44
0.0000000001
40
0
40
0
40
0
40
1
40
1
40
1
10
-64.609204867589568
20
-32.221647494832617
30
0
10
-64.571583011853789
20
-32.184026235143286
30
0
10
-64.520416596639251
20
-32.184026235143286
30
0
0
SPLINE
5
471
100
AcDbEntity
8
0
100
AcDbSpline
70
0
71
2
72
6
73
3
74
0
42
0.000000001
43
0.0000000001
44
0.0000000001
40
0
40
0
40
0
40
1
40
1
40
1
10
-64.520416596639251
20
-32.184026235143286
30
0
10
-64.467745164144134
20
-32.184026235143286
30
0
10
-64.429370501744842
20
-32.220895284215551
30
0
0
SPLINE
5
472
100
AcDbEntity
8
0
100
AcDbSpline
70
0
71
2
72
6
73
3
74
0
42
0.000000001
43
0.0000000001
44
0.0000000001
40
0
40
0
40
0
40
1
40
1
40
1
10
-64.429370501744842
20
-32.220895284215551
30
0
10
-64.39099583934555
20
-32.257765525380712
30
0
10
-64.39099583934555
20
-32.310435765782934
30
0
0
LINE
5
473
100
AcDbEntity
8
0
100
AcDbLine
10
-65.667143204915618
20
-30.451896184484106
30
0
11
-66.264584997403716
21
-30.451896184484106
31
0
0
SPLINE
5
474
100
AcDbEntity
8
0
100
AcDbSpline
70
0
71
2
72
6
73
3
74
0
42
0.000000001
43
0.0000000001
44
0.0000000001
40
0
40
0
40
0
40
1
40
1
40
1
10
-66.264584997403716
20
-30.451896184484106
30
0
10
-66.31725613187561
20
-30.451896184484106
30
0
10
-66.354126075017547
20
-30.415779346028906
30
0
0
SPLINE
5
475
100
AcDbEntity
8
0
100
AcDbSpline
70
0
71
2
72
6
73
3
74
0
42
0.000000001
43
0.0000000001
44
0.0000000001
40
0
40
0
40
0
40
1
40
1
40
1
10
-66.354126075017547
20
-30.415779346028906
30
0
10
-66.39099572013626
20
-30.379662507573705
30
0
10
-66.39099572013626
20
-30.328495496312719
30
0
0
SPLINE
5
476
100
AcDbEntity
8
0
100
AcDbSpline
70
0
71
2
72
6
73
3
74
0
42
0.000000001
43
0.0000000001
44
0.0000000001
40
0
40
0
40
0
40
1
40
1
40
1
10
-66.39099572013626
20
-30.328495496312719
30
0
10
-66.39099572013626
20
-30.275824063817602
30
0
10
-66.354126075017547
20
-30.23744940141831
30
0
0
SPLINE
5
477
100
AcDbEntity
8
0
100
AcDbSpline
70
0
71
2
72
6
73
3
74
0
42
0.000000001
43
0.0000000001
44
0.0000000001
40
0
40
0
40
0
40
1
40
1
40
1
10
-66.354126075017547
20
-30.23744940141831
30
0
10
-66.31725613187561
20
-30.199074739019018
30
0
10
-66.264584997403716
20
-30.199074739019018
30
0
0
LINE
5
478
100
AcDbEntity
8
0
100
AcDbLine
10
-66.264584997403716
20
-30.199074739019018
30
0
11
-64.517406562078094
21
-30.199074739019018
31
0
0
SPLINE
5
479
100
AcDbEntity
8
0
100
AcDbSpline
70
0
71
2
72
6
73
3
74
0
42
0.000000001
43
0.0000000001
44
0.0000000001
40
0
40
0
40
0
40
1
40
1
40
1
10
-64.517406562078094
20
-30.199074739019018
30
0
10
-64.464735725629424
20
-30.199074739019018
30
0
10
-64.427865484464263
20
-30.236697190801245
30
0
0
SPLINE
5
480
100
AcDbEntity
8
0
100
AcDbSpline
70
0
71
2
72
6
73
3
74
0
42
0.000000001
43
0.0000000001
44
0.0000000001
40
0
40
0
40
0
40
1
40
1
40
1
10
-64.427865484464263
20
-30.236697190801245
30
0
10
-64.39099583934555
20
-30.274319642583471
30
0
10
-64.39099583934555
20
-30.325485461751562
30
0
0
SPLINE
5
481
100
AcDbEntity
8
0
100
AcDbSpline
70
0
71
2
72
6
73
3
74
0
42
0.000000001
43
0.0000000001
44
0.0000000001
40
0
40
0
40
0
40
1
40
1
40
1
10
-64.39099583934555
20
-30.325485461751562
30
0
10
-64.39099583934555
20
-30.379662507573705
30
0
10
-64.427865484464263
20
-30.415779346028906
30
0
0
SPLINE
5
482
100
AcDbEntity
8
0
100
AcDbSpline
70
0
71
2
72
6
73
3
74
0
42
0.000000001
43
0.0000000001
44
0.0000000001
40
0
40
0
40
0
40
1
40
1
40
1
10
-64.427865484464263
20
-30.415779346028906
30
0
10
-64.464735725629424
20
-30.451896184484106
30
0
10
-64.517406562078094
20
-30.451896184484106
30
0
0
LINE
5
483
100
AcDbEntity
8
0
100
AcDbLine
10
-64.517406562078094
20
-30.451896184484106
30
0
11
-64.57308743308792
21
-30.451896184484106
31
0
0
SPLINE
5
484
100
AcDbEntity
8
0
100
AcDbSpline
70
0
71
2
72
6
73
3
74
0
42
0.000000001
43
0.0000000001
44
0.0000000001
40
0
40
0
40
0
40
1
40
1
40
1
10
-64.57308743308792
20
-30.451896184484106
30
0
10
-64.39099583934555
20
-30.636998408834081
30
0
10
-64.39099583934555
20
-30.798021548787695
30
0
0
LINE
5
485
100
AcDbEntity
8
0
100
AcDbLine
10
-64.39099583934555
20
-30.798021548787695
30
0
11
-64.39099583934555
21
-31.013221734563452
31
0
0
SPLINE
5
486
100
AcDbEntity
8
0
100
AcDbSpline
70
0
71
2
72
6
73
3
74
0
42
0.000000001
43
0.0000000001
44
0.0000000001
40
0
40
0
40
0
40
1
40
1
40
1
10
-64.39099583934555
20
-31.013221734563452
30
0
10
-64.39099583934555
20
-31.142641299764257
30
0
10
-64.502357581365203
20
-31.272062057057958
30
0
0
LINE
5
487
100
AcDbEntity
8
0
100
AcDbLine
10
-64.502357581365203
20
-31.272062057057958
30
0
11
-64.591146448361968
21
-31.377403729955297
31
0
0
SPLINE
5
488
100
AcDbEntity
8
0
100
AcDbSpline
70
0
71
2
72
6
73
3
74
0
42
0.000000001
43
0.0000000001
44
0.0000000001
40
0
40
0
40
0
40
1
40
1
40
1
10
-64.591146448361968
20
-31.377403729955297
30
0
10
-64.625758865583038
20
-31.413521760503393
30
0
10
-64.70702264617691
20
-31.445877545873266
30
0
0
SPLINE
5
489
100
AcDbEntity
8
0
100
AcDbSpline
70
0
71
2
72
6
73
3
74
0
42
0.000000001
43
0.0000000001
44
0.0000000001
40
0
40
0
40
0
40
1
40
1
40
1
10
-64.70702264617691
20
-31.445877545873266
30
0
10
-64.788287022817229
20
-31.478232139150244
30
0
10
-64.859016874539947
20
-31.478232139150244
30
0
0
LINE
5
490
100
AcDbEntity
8
0
100
AcDbLine
10
-64.859016874539947
20
-31.478232139150244
30
0
11
-65.37368957113037
21
-31.478232139150244
31
0
0
SPLINE
5
491
100
AcDbEntity
8
0
100
AcDbSpline
70
0
71
2
72
6
73
3
74
0
42
0.000000001
43
0.0000000001
44
0.0000000001
40
0
40
0
40
0
40
1
40
1
40
1
10
-65.37368957113037
20
-31.478232139150244
30
0
10
-65.459468403565978
20
-31.478232139150244
30
0
10
-65.539979973542785
20
-31.442115300695043
30
0
0
SPLINE
5
492
100
AcDbEntity
8
0
100
AcDbSpline
70
0
71
2
72
6
73
3
74
0
42
0.000000001
43
0.0000000001
44
0.0000000001
40
0
40
0
40
0
40
1
40
1
40
1
10
-65.539979973542785
20
-31.442115300695043
30
0
10
-65.620491543519591
20
-31.405997270146948
30
0
10
-65.661123731839751
20
-31.357841485540014
30
0
0
LINE
5
493
100
AcDbEntity
8
0
100
AcDbLine
10
-65.661123731839751
20
-31.357841485540014
30
0
11
-65.749912300813293
21
-31.254003041783911
31
0
0
SPLINE
5
494
100
AcDbEntity
8
0
100
AcDbSpline
70
0
71
2
72
6
73
3
74
0
42
0.000000001
43
0.0000000001
44
0.0000000001
40
0
40
0
40
0
40
1
40
1
40
1
10
-65.749912300813293
20
-31.254003041783911
30
0
10
-65.846225360143279
20
-31.142641299764257
30
0
10
-65.846225360143279
20
-30.992152684728246
30
0
0
LINE
5
495
100
AcDbEntity
8
0
100
AcDbLine
10
-65.846225360143279
20
-30.992152684728246
30
0
11
-65.846225360143279
21
-30.810060494939428
31
0
0
SPLINE
5
496
100
AcDbEntity
8
0
100
AcDbSpline
70
0
71
2
72
6
73
3
74
0
42
0.000000001
43
0.0000000001
44
0.0000000001
40
0
40
0
40
0
40
1
40
1
40
1
10
-65.846225360143279
20
-30.810060494939428
30
0
10
-65.846225360143279
20
-30.661076301137548
30
0
10
-65.740883091199493
20
-30.539180034200292
30
0
0
LINE
5
497
100
AcDbEntity
8
0
100
AcDbLine
10
-65.740883091199493
20
-30.539180034200292
30
0
11
-65.667143204915618
21
-30.451896184484106
31
0
0
LINE
5
498
100
AcDbEntity
8
0
100
AcDbLine
10
-65.590393880117034
20
-30.819089406530004
30
0
11
-65.590393880117034
21
-30.995161527196508
31
0
0
SPLINE
5
499
100
AcDbEntity
8
0
100
AcDbSpline
70
0
71
2
72
6
73
3
74
0
42
0.000000001
43
0.0000000001
44
0.0000000001
40
0
40
0
40
0
40
1
40
1
40
1
10
-65.590393880117034
20
-30.995161527196508
30
0
10
-65.590393880117034
20
-31.050842994252783
30
0
10
-65.549761691796874
20
-31.095989936391454
30
0
0
LINE
5
500
100
AcDbEntity
8
0
100
AcDbLine
10
-65.549761691796874
20
-31.095989936391454
30
0
11
-65.479031840074157
21
-31.177253716985327
31
0
0
SPLINE
5
501
100
AcDbEntity
8
0
100
AcDbSpline
70
0
71
2
72
6
73
3
74
0
42
0.000000001
43
0.0000000001
44
0.0000000001
40
0
40
0
40
0
40
1
40
1
40
1
10
-65.479031840074157
20
-31.177253716985327
30
0
10
-65.441409686315154
20
-31.219390624562841
30
0
10
-65.38271878074417
20
-31.219390624562841
30
0
0
LINE
5
502
100
AcDbEntity
8
0
100
AcDbLine
10
-65.38271878074417
20
-31.219390624562841
30
0
11
-64.846977928388213
21
-31.219390624562841
31
0
0
SPLINE
5
503
100
AcDbEntity
8
0
100
AcDbSpline
70
0
71
2
72
6
73
3
74
0
42
0.000000001
43
0.0000000001
44
0.0000000001
40
0
40
0
40
0
40
1
40
1
40
1
10
-64.846977928388213
20
-31.219390624562841
30
0
10
-64.794306495893096
20
-31.219390624562841
30
0
10
-64.752169588315581
20
-31.169729226628881
30
0
0
LINE
5
504
100
AcDbEntity
8
0
100
AcDbLine
10
-64.752169588315581
20
-31.169729226628881
30
0
11
-64.681439736592864
21
-31.086959832707983
31
0
0
SPLINE
5
505
100
AcDbEntity
8
0
100
AcDbSpline
70
0
71
2
72
6
73
3
74
0
42
0.000000001
43
0.0000000001
44
0.0000000001
40
0
40
0
40
0
40
1
40
1
40
1
10
-64.681439736592864
20
-31.086959832707983
30
0
10
-64.646827319371795
20
-31.047832959691625
30
0
10
-64.646827319371795
20
-31.00419163087998
30
0
0
LINE
5
506
100
AcDbEntity
8
0
100
AcDbLine
10
-64.646827319371795
20
-31.00419163087998
30
0
11
-64.646827319371795
21
-30.798021548787695
31
0
0
SPLINE
5
507
100
AcDbEntity
8
0
100
AcDbSpline
70
0
71
2
72
6
73
3
74
0
42
0.000000001
43
0.0000000001
44
0.0000000001
40
0
40
0
40
0
40
1
40
1
40
1
10
-64.646827319371795
20
-30.798021548787695
30
0
10
-64.646827319371795
20
-30.757389062444311
30
0
10
-64.693478682744598
20
-30.701708787480932
30
0
0
LINE
5
508
100
AcDbEntity
8
0
100
AcDbLine
10
-64.693478682744598
20
-30.701708787480932
30
0
11
-64.859016874539947
21
-30.501558774510961
31
0
0
SPLINE
5
509
100
AcDbEntity
8
0
100
AcDbSpline
70
0
71
2
72
6
73
3
74
0
42
0.000000001
43
0.0000000001
44
0.0000000001
40
0
40
0
40
0
40
1
40
1
40
1
10
-64.859016874539947
20
-30.501558774510961
30
0
10
-64.90265879939804
20
-30.451896184484106
30
0
10
-64.967369178044891
20
-30.451896184484106
30
0
0
LINE
5
510
100
AcDbEntity
8
0
100
AcDbLine
10
-64.967369178044891
20
-30.451896184484106
30
0
11
-65.241259077298736
21
-30.451896184484106
31
0
0
SPLINE
5
511
100
AcDbEntity
8
0
100
AcDbSpline
70
0
71
2
72
6
73
3
74
0
42
0.000000001
43
0.0000000001
44
0.0000000001
40
0
40
0
40
0
40
1
40
1
40
1
10
-65.241259077298736
20
-30.451896184484106
30
0
10
-65.33305738281021
20
-30.451896184484106
30
0
10
-65.376699307668304
20
-30.504567616979223
30
0
0
LINE
5
512
100
AcDbEntity
8
0
100
AcDbLine
10
-65.376699307668304
20
-30.504567616979223
30
0
11
-65.552771428334808
21
-30.710737699071508
31
0
0
SPLINE
5
513
100
AcDbEntity
8
0
100
AcDbSpline
70
0
71
2
72
6
73
3
74
0
42
0.000000001
43
0.0000000001
44
0.0000000001
40
0
40
0
40
0
40
1
40
1
40
1
10
-65.552771428334808
20
-30.710737699071508
30
0
10
-65.590393880117034
20
-30.751370185414892
30
0
10
-65.590393880117034
20
-30.819089406530004
30
0
0
LINE
5
514
100
AcDbEntity
8
0
100
AcDbLine
10
-66.261574962842559
20
-28.784477704564672
30
0
11
-65.281891265618896
21
-28.846178048650366
31
0
0
SPLINE
5
515
100
AcDbEntity
8
0
100
AcDbSpline
70
0
71
2
72
6
73
3
74
0
42
0.000000001
43
0.0000000001
44
0.0000000001
40
0
40
0
40
0
40
1
40
1
40
1
10
-65.281891265618896
20
-28.846178048650366
30
0
10
-65.227715113866424
20
-28.850692504445654
30
0
10
-65.191597679364776
20
-28.886810534993749
30
0
0
SPLINE
5
516
100
AcDbEntity
8
0
100
AcDbSpline
70
0
71
2
72
6
73
3
74
0
42
0.000000001
43
0.0000000001
44
0.0000000001
40
0
40
0
40
0
40
1
40
1
40
1
10
-65.191597679364776
20
-28.886810534993749
30
0
10
-65.155480244863128
20
-28.92292737344895
30
0
10
-65.155480244863128
20
-28.97258877138291
30
0
0
SPLINE
5
517
100
AcDbEntity
8
0
100
AcDbSpline
70
0
71
2
72
6
73
3
74
0
42
0.000000001
43
0.0000000001
44
0.0000000001
40
0
40
0
40
0
40
1
40
1
40
1
10
-65.155480244863128
20
-28.97258877138291
30
0
10
-65.155480244863128
20
-29.028270238439184
30
0
10
-65.193102696645354
20
-29.063634866277319
30
0
0
SPLINE
5
518
100
AcDbEntity
8
0
100
AcDbSpline
70
0
71
2
72
6
73
3
74
0
42
0.000000001
43
0.0000000001
44
0.0000000001
40
0
40
0
40
0
40
1
40
1
40
1
10
-65.193102696645354
20
-29.063634866277319
30
0
10
-65.230724850404357
20
-29.098999494115454
30
0
10
-65.281891265618896
20
-29.102009528676611
30
0
0
LINE
5
519
100
AcDbEntity
8
0
100
AcDbLine
10
-65.281891265618896
20
-29.102009528676611
30
0
11
-66.264584997403716
21
-29.163709872762304
31
0
0
SPLINE
5
520
100
AcDbEntity
8
0
100
AcDbSpline
70
0
71
2
72
6
73
3
74
0
42
0.000000001
43
0.0000000001
44
0.0000000001
40
0
40
0
40
0
40
1
40
1
40
1
10
-66.264584997403716
20
-29.163709872762304
30
0
10
-66.315751114595031
20
-29.166719907323461
30
0
10
-66.353373268354034
20
-29.128345244924169
30
0
0
SPLINE
5
521
100
AcDbEntity
8
0
100
AcDbSpline
70
0
71
2
72
6
73
3
74
0
42
0.000000001
43
0.0000000001
44
0.0000000001
40
0
40
0
40
0
40
1
40
1
40
1
10
-66.353373268354034
20
-29.128345244924169
30
0
10
-66.39099572013626
20
-29.089970582524877
30
0
10
-66.39099572013626
20
-29.03729915002976
30
0
0
LINE
5
522
100
AcDbEntity
8
0
100
AcDbLine
10
-66.39099572013626
20
-29.03729915002976
30
0
11
-66.39099572013626
21
-28.910888427297216
31
0
0
SPLINE
5
523
100
AcDbEntity
8
0
100
AcDbSpline
70
0
71
2
72
6
73
3
74
0
42
0.000000001
43
0.0000000001
44
0.0000000001
40
0
40
0
40
0
40
1
40
1
40
1
10
-66.39099572013626
20
-28.910888427297216
30
0
10
-66.39099572013626
20
-28.858216994802099
30
0
10
-66.35111604045639
20
-28.819842332402807
30
0
0
SPLINE
5
524
100
AcDbEntity
8
0
100
AcDbSpline
70
0
71
2
72
6
73
3
74
0
42
0.000000001
43
0.0000000001
44
0.0000000001
40
0
40
0
40
0
40
1
40
1
40
1
10
-66.35111604045639
20
-28.819842332402807
30
0
10
-66.311236360776519
20
-28.781467670003515
30
0
10
-66.261574962842559
20
-28.784477704564672
30
0
0
LINE
5
525
100
AcDbEntity
8
0
100
AcDbLine
10
-64.758189061391448
20
-29.03729915002976
30
0
11
-64.758189061391448
21
-28.916908496419531
31
0
0
SPLINE
5
526
100
AcDbEntity
8
0
100
AcDbSpline
70
0
71
2
72
6
73
3
74
0
42
0.000000001
43
0.0000000001
44
0.0000000001
40
0
40
0
40
0
40
1
40
1
40
1
10
-64.758189061391448
20
-28.916908496419531
30
0
10
-64.758189061391448
20
-28.864237063924413
30
0
10
-64.720567205655669
20
-28.825862401525121
30
0
0
SPLINE
5
527
100
AcDbEntity
8
0
100
AcDbSpline
70
0
71
2
72
6
73
3
74
0
42
0.000000001
43
0.0000000001
44
0.0000000001
40
0
40
0
40
0
40
1
40
1
40
1
10
-64.720567205655669
20
-28.825862401525121
30
0
10
-64.682944753873443
20
-28.787487739125829
30
0
10
-64.631778338658904
20
-28.787487739125829
30
0
0
LINE
5
528
100
AcDbEntity
8
0
100
AcDbLine
10
-64.631778338658904
20
-28.787487739125829
30
0
11
-64.520416596639251
21
-28.787487739125829
31
0
0
SPLINE
5
529
100
AcDbEntity
8
0
100
AcDbSpline
70
0
71
2
72
6
73
3
74
0
42
0.000000001
43
0.0000000001
44
0.0000000001
40
0
40
0
40
0
40
1
40
1
40
1
10
-64.520416596639251
20
-28.787487739125829
30
0
10
-64.467745164144134
20
-28.787487739125829
30
0
10
-64.43087551902542
20
-28.824356788198095
30
0
0
SPLINE
5
530
100
AcDbEntity
8
0
100
AcDbSpline
70
0
71
2
72
6
73
3
74
0
42
0.000000001
43
0.0000000001
44
0.0000000001
40
0
40
0
40
0
40
1
40
1
40
1
10
-64.43087551902542
20
-28.824356788198095
30
0
10
-64.394005873906707
20
-28.861227029363256
30
0
10
-64.394005873906707
20
-28.913898461858373
30
0
0
LINE
5
531
100
AcDbEntity
8
0
100
AcDbLine
10
-64.394005873906707
20
-28.913898461858373
30
0
11
-64.394005873906707
21
-29.040309184590917
31
0
0
SPLINE
5
532
100
AcDbEntity
8
0
100
AcDbSpline
70
0
71
2
72
6
73
3
74
0
42
0.000000001
43
0.0000000001
44
0.0000000001
40
0
40
0
40
0
40
1
40
1
40
1
10
-64.394005873906707
20
-29.040309184590917
30
0
10
-64.394005873906707
20
-29.092980617086035
30
0
10
-64.43087551902542
20
-29.1298496661583
30
0
0
SPLINE
5
533
100
AcDbEntity
8
0
100
AcDbSpline
70
0
71
2
72
6
73
3
74
0
42
0.000000001
43
0.0000000001
44
0.0000000001
40
0
40
0
40
0
40
1
40
1
40
1
10
-64.43087551902542
20
-29.1298496661583
30
0
10
-64.467745164144134
20
-29.166719907323461
30
0
10
-64.520416596639251
20
-29.166719907323461
30
0
0
LINE
5
534
100
AcDbEntity
8
0
100
AcDbLine
10
-64.520416596639251
20
-29.166719907323461
30
0
11
-64.628768304097747
21
-29.166719907323461
31
0
0
SPLINE
5
535
100
AcDbEntity
8
0
100
AcDbSpline
70
0
71
2
72
6
73
3
74
0
42
0.000000001
43
0.0000000001
44
0.0000000001
40
0
40
0
40
0
40
1
40
1
40
1
10
-64.628768304097747
20
-29.166719907323461
30
0
10
-64.681439736592864
20
-29.16521548608933
30
0
10
-64.719814398992156
20
-29.127593034307104
30
0
0
SPLINE
5
536
100
AcDbEntity
8
0
100
AcDbSpline
70
0
71
2
72
6
73
3
74
0
42
0.000000001
43
0.0000000001
44
0.0000000001
40
0
40
0
40
0
40
1
40
1
40
1
10
-64.719814398992156
20
-29.127593034307104
30
0
10
-64.758189061391448
20
-29.089970582524877
30
0
10
-64.758189061391448
20
-29.03729915002976
30
0
0
ENDSEC
0
SECTION
2
OBJECTS
0
DICTIONARY
5
C
100
AcDbDictionary
3
ACAD_GROUP
350
D
3
ACAD_MLINESTYLE
350
17
0
DICTIONARY
5
D
100
AcDbDictionary
0
DICTIONARY
5
1A
330
C
100
AcDbDictionary
0
DICTIONARY
5
17
100
AcDbDictionary
0
ENDSEC
0
EOF
